Radio-Canada-Medium.ufo
<glyph name="quotedbl" format="1">
  <advance width="456.0"/>
  <unicode hex="0022"/>
  <outline>
    <contour>
      <point x="56.0" y="720.0" type="line"/>
      <point x="83.80000000000001" y="413.0" type="line"/>
      <point x="172.2" y="413.0" type="line"/>
      <point x="200.0" y="720.0" type="line"/>
    </contour>
    <contour>
      <point x="256.0" y="720.0" type="line"/>
      <point x="283.8" y="413.0" type="line"/>
      <point x="372.2" y="413.0" type="line"/>
      <point x="400.0" y="720.0" type="line"/>
    </contour>
  </outline>
</glyph>
<glyph name="numbersign" format="1">
  <advance width="779.4"/>
  <unicode hex="0023"/>
  <outline>
    <contour>
      <point x="59.0" y="170.8" type="line"/>
      <point x="661.8" y="170.8" type="line"/>
      <point x="661.8" y="281.6" type="line"/>
      <point x="59.0" y="281.6" type="line"/>
    </contour>
    <contour>
      <point x="113.4" y="0.0" type="line"/>
      <point x="233.0" y="0.0" type="line"/>
      <point x="401.0" y="690.0" type="line"/>
      <point x="281.4" y="690.0" type="line"/>
    </contour>
    <contour>
      <point x="117.6" y="408.4" type="line"/>
      <point x="720.4" y="408.4" type="line"/>
      <point x="720.4" y="519.2" type="line"/>
      <point x="117.6" y="519.2" type="line"/>
    </contour>
    <contour>
      <point x="378.4" y="0.0" type="line"/>
      <point x="498.0" y="0.0" type="line"/>
      <point x="666.0" y="690.0" type="line"/>
      <point x="546.4" y="690.0" type="line"/>
    </contour>
  </outline>
</glyph>
<glyph name="dollar" format="1">
  <advance width="600.0"/>
  <unicode hex="0024"/>
  <outline>
    <contour>
      <point x="24.8" y="82.0" type="line"/>
      <point x="100.6" y="25.200000000000003"/>
      <point x="200.8" y="-11.2"/>
      <point x="297.2" y="-11.2" type="curve"/>
      <point x="475.79999999999995" y="-11.2"/>
      <point x="567.2" y="81.4"/>
      <point x="567.2" y="190.2" type="curve"/>
      <point x="567.2" y="286.0"/>
      <point x="502.2" y="362.0"/>
      <point x="329.4" y="416.8" type="curve" smooth="yes"/>
      <point x="223.39999999999998" y="450.2"/>
      <point x="191.6" y="480.0"/>
      <point x="191.6" y="516.6" type="curve"/>
      <point x="191.6" y="553.4"/>
      <point x="227.6" y="586.4"/>
      <point x="296.79999999999995" y="586.4" type="curve" smooth="yes"/>
      <point x="366.6" y="586.4"/>
      <point x="431.6" y="559.0"/>
      <point x="484.6" y="516.4" type="curve"/>
      <point x="549.2" y="621.4" type="line"/>
      <point x="487.0" y="668.5999999999999"/>
      <point x="393.6" y="701.2"/>
      <point x="307.4" y="701.2" type="curve"/>
      <point x="149.2" y="701.2"/>
      <point x="57.8" y="612.0"/>
      <point x="57.8" y="504.8" type="curve"/>
      <point x="57.8" y="415.79999999999995"/>
      <point x="116.8" y="341.6"/>
      <point x="284.0" y="289.0" type="curve" smooth="yes"/>
      <point x="399.4" y="252.6"/>
      <point x="428.6" y="216.8"/>
      <point x="428.6" y="178.8" type="curve"/>
      <point x="428.6" y="139.2"/>
      <point x="386.8" y="106.39999999999999"/>
      <point x="310.6" y="106.39999999999999" type="curve"/>
      <point x="230.8" y="106.39999999999999"/>
      <point x="151.4" y="138.6"/>
      <point x="92.8" y="189.39999999999998" type="curve"/>
    </contour>
    <contour>
      <point x="253.8" y="-100.0" type="line"/>
      <point x="368.2" y="-100.0" type="line"/>
      <point x="368.2" y="158.2" type="line"/>
      <point x="253.8" y="194.2" type="line"/>
    </contour>
    <contour>
      <point x="253.8" y="528.4" type="line"/>
      <point x="368.2" y="492.4" type="line"/>
      <point x="368.2" y="790.0" type="line"/>
      <point x="253.8" y="790.0" type="line"/>
    </contour>
  </outline>
</glyph>
<glyph name="ampersand" format="1">
  <advance width="660.0"/>
  <unicode hex="0026"/>
  <outline>
    <contour>
      <point x="43.2" y="170.0" type="curve" smooth="yes"/>
      <point x="43.2" y="60.0"/>
      <point x="130.0" y="-11.2"/>
      <point x="250.0" y="-11.2" type="curve" smooth="yes"/>
      <point x="436.0" y="-11.2"/>
      <point x="546.0" y="140.0"/>
      <point x="612.0" y="296.0" type="curve"/>
      <point x="502.0" y="338.0" type="line"/>
      <point x="458.0" y="204.0"/>
      <point x="378.0" y="98.8"/>
      <point x="266.0" y="98.8" type="curve" smooth="yes"/>
      <point x="211.0" y="98.8"/>
      <point x="173.8" y="131.0"/>
      <point x="173.8" y="179.0" type="curve" smooth="yes"/>
      <point x="173.8" y="220.0"/>
      <point x="197.6" y="258.8"/>
      <point x="254.0" y="291.0" type="curve" smooth="yes"/>
      <point x="373.0" y="359.0" type="line" smooth="yes"/>
      <point x="458.59999999999997" y="408.0"/>
      <point x="503.0" y="458.0"/>
      <point x="503.0" y="534.0" type="curve" smooth="yes"/>
      <point x="503.0" y="626.0"/>
      <point x="429.0" y="701.2"/>
      <point x="313.0" y="701.2" type="curve" smooth="yes"/>
      <point x="197.0" y="701.2"/>
      <point x="118.0" y="626.0"/>
      <point x="118.0" y="527.0" type="curve" smooth="yes"/>
      <point x="118.0" y="454.0"/>
      <point x="160.0" y="400.0"/>
      <point x="208.0" y="344.0" type="curve" smooth="yes"/>
      <point x="500.0" y="0.0" type="line"/>
      <point x="662.0" y="0.0" type="line"/>
      <point x="316.0" y="406.0" type="line" smooth="yes"/>
      <point x="272.79999999999995" y="456.4"/>
      <point x="241.0" y="483.0"/>
      <point x="241.0" y="527.0" type="curve" smooth="yes"/>
      <point x="241.0" y="568.0"/>
      <point x="268.2" y="602.0"/>
      <point x="313.0" y="602.0" type="curve" smooth="yes"/>
      <point x="357.79999999999995" y="602.0"/>
      <point x="385.0" y="568.0"/>
      <point x="385.0" y="527.0" type="curve" smooth="yes"/>
      <point x="385.0" y="487.0"/>
      <point x="357.6" y="462.0"/>
      <point x="312.0" y="437.0" type="curve" smooth="yes"/>
      <point x="187.60000000000002" y="369.0" type="line" smooth="yes"/>
      <point x="94.0" y="317.6"/>
      <point x="43.2" y="253.0"/>
    </contour>
  </outline>
</glyph>
<glyph name="quotesingle" format="1">
  <advance width="256.0"/>
  <unicode hex="0027"/>
  <outline>
    <contour>
      <point x="56.0" y="720.0" type="line"/>
      <point x="83.80000000000001" y="413.0" type="line"/>
      <point x="172.2" y="413.0" type="line"/>
      <point x="200.0" y="720.0" type="line"/>
    </contour>
  </outline>
</glyph>
<glyph name="asterisk" format="1">
  <advance width="610.6"/>
  <unicode hex="002A"/>
  <outline>
    <contour>
      <point x="59.0" y="497.8" type="line"/>
      <point x="237.6" y="458.0" type="line"/>
      <point x="117.39999999999999" y="323.2" type="line"/>
      <point x="215.0" y="251.6" type="line"/>
      <point x="305.6" y="406.2" type="line"/>
      <point x="395.6" y="251.6" type="line"/>
      <point x="493.79999999999995" y="323.2" type="line"/>
      <point x="373.6" y="458.0" type="line"/>
      <point x="551.6" y="497.8" type="line"/>
      <point x="514.5999999999999" y="612.8" type="line"/>
      <point x="348.4" y="540.0" type="line"/>
      <point x="365.6" y="720.0" type="line"/>
      <point x="245.0" y="720.0" type="line"/>
      <point x="262.8" y="540.0" type="line"/>
      <point x="96.6" y="612.8" type="line"/>
    </contour>
  </outline>
</glyph>
<glyph name="plus" format="1">
  <advance width="600.0"/>
  <unicode hex="002B"/>
  <outline>
    <contour>
      <point x="66.4" y="233.79999999999998" type="line"/>
      <point x="533.6" y="233.79999999999998" type="line"/>
      <point x="533.6" y="346.2" type="line"/>
      <point x="66.4" y="346.2" type="line"/>
    </contour>
    <contour>
      <point x="241.60000000000002" y="59.0" type="line"/>
      <point x="358.4" y="59.0" type="line"/>
      <point x="358.4" y="521.0" type="line"/>
      <point x="241.60000000000002" y="521.0" type="line"/>
    </contour>
  </outline>
</glyph>
<glyph name="zero" format="1">
  <advance width="600.0"/>
  <unicode hex="0030"/>
  <outline>
    <contour>
      <point x="29.8" y="345.0" type="curve" smooth="yes"/>
      <point x="29.8" y="105.6"/>
      <point x="152.4" y="-11.2"/>
      <point x="300.0" y="-11.2" type="curve" smooth="yes"/>
      <point x="447.6" y="-11.2"/>
      <point x="570.2" y="105.6"/>
      <point x="570.2" y="345.0" type="curve" smooth="yes"/>
      <point x="570.2" y="584.4"/>
      <point x="447.6" y="701.2"/>
      <point x="300.0" y="701.2" type="curve" smooth="yes"/>
      <point x="152.4" y="701.2"/>
      <point x="29.8" y="584.4"/>
    </contour>
    <contour>
      <point x="167.8" y="345.0" type="curve" smooth="yes"/>
      <point x="167.8" y="511.0"/>
      <point x="224.6" y="579.8"/>
      <point x="300.0" y="579.8" type="curve" smooth="yes"/>
      <point x="375.4" y="579.8"/>
      <point x="432.20000000000005" y="511.0"/>
      <point x="432.20000000000005" y="345.0" type="curve" smooth="yes"/>
      <point x="432.20000000000005" y="179.0"/>
      <point x="375.4" y="110.19999999999999"/>
      <point x="300.0" y="110.19999999999999" type="curve" smooth="yes"/>
      <point x="224.6" y="110.19999999999999"/>
      <point x="167.8" y="179.0"/>
    </contour>
  </outline>
</glyph>
<glyph name="one" format="1">
  <advance width="600.0"/>
  <unicode hex="0031"/>
  <outline>
    <contour>
      <point x="85.6" y="0.0" type="line"/>
      <point x="527.6" y="0.0" type="line"/>
      <point x="527.6" y="104.4" type="line"/>
      <point x="85.6" y="104.4" type="line"/>
    </contour>
    <contour>
      <point x="78.4" y="601.4000000000001" type="line"/>
      <point x="120.8" y="500.0" type="line"/>
      <point x="317.6" y="583.8" type="line"/>
      <point x="286.0" y="690.0" type="line"/>
    </contour>
    <contour>
      <point x="243.8" y="0.0" type="line"/>
      <point x="378.20000000000005" y="0.0" type="line"/>
      <point x="378.20000000000005" y="690.0" type="line"/>
      <point x="286.0" y="690.0" type="line"/>
      <point x="243.8" y="637.0" type="line"/>
    </contour>
  </outline>
</glyph>
<glyph name="two" format="1">
  <advance width="600.0"/>
  <unicode hex="0032"/>
  <outline>
    <contour>
      <point x="43.400000000000006" y="592.2" type="curve"/>
      <point x="121.6" y="496.6" type="line"/>
      <point x="168.6" y="546.0"/>
      <point x="219.0" y="576.6"/>
      <point x="279.2" y="576.6" type="curve"/>
      <point x="350.6" y="576.6"/>
      <point x="387.6" y="531.6"/>
      <point x="387.6" y="479.0" type="curve"/>
      <point x="387.6" y="432.8"/>
      <point x="362.4" y="394.4"/>
      <point x="287.6" y="320.8" type="curve" smooth="yes"/>
      <point x="53.599999999999994" y="89.4" type="line"/>
      <point x="115.4" y="0.0" type="line"/>
      <point x="371.4" y="233.2" type="line" smooth="yes"/>
      <point x="484.6" y="336.6"/>
      <point x="525.6" y="407.4"/>
      <point x="525.6" y="491.0" type="curve"/>
      <point x="525.6" y="612.4"/>
      <point x="424.0" y="701.2"/>
      <point x="291.20000000000005" y="701.2" type="curve" smooth="yes"/>
      <point x="190.6" y="701.2"/>
      <point x="108.80000000000001" y="657.2"/>
    </contour>
    <contour>
      <point x="53.599999999999994" y="0.0" type="line"/>
      <point x="535.6" y="0.0" type="line"/>
      <point x="535.6" y="118.4" type="line"/>
      <point x="123.6" y="118.4" type="line"/>
      <point x="53.599999999999994" y="89.4" type="line"/>
    </contour>
  </outline>
</glyph>
<glyph name="eight" format="1">
  <advance width="600.0"/>
  <unicode hex="0038"/>
  <outline>
    <contour>
      <point x="45.0" y="173.0" type="curve"/>
      <point x="45.0" y="63.0"/>
      <point x="141.6" y="-11.2"/>
      <point x="298.0" y="-11.2" type="curve"/>
      <point x="465.0" y="-11.2"/>
      <point x="555.0" y="76.8"/>
      <point x="555.0" y="182.8" type="curve"/>
      <point x="555.0" y="275.8"/>
      <point x="498.79999999999995" y="359.0"/>
      <point x="324.0" y="415.2" type="curve" smooth="yes"/>
      <point x="226.20000000000002" y="446.2"/>
      <point x="196.2" y="478.40000000000003"/>
      <point x="196.2" y="515.0" type="curve"/>
      <point x="196.2" y="554.8"/>
      <point x="227.0" y="593.2"/>
      <point x="298.4" y="593.2" type="curve"/>
      <point x="366.2" y="593.2"/>
      <point x="403.4" y="555.8"/>
      <point x="403.4" y="509.59999999999997" type="curve"/>
      <point x="403.4" y="463.6"/>
      <point x="363.20000000000005" y="420.40000000000003"/>
      <point x="291.0" y="405.0" type="curve"/>
      <point x="361.79999999999995" y="366.0" type="line"/>
      <point x="471.0" y="380.8"/>
      <point x="528.0" y="439.8"/>
      <point x="528.0" y="522.0" type="curve"/>
      <point x="528.0" y="624.0"/>
      <point x="435.4" y="701.2"/>
      <point x="299.0" y="701.2" type="curve"/>
      <point x="160.60000000000002" y="701.2"/>
      <point x="69.0" y="615.8"/>
      <point x="69.0" y="512.8" type="curve"/>
      <point x="69.0" y="420.20000000000005"/>
      <point x="123.2" y="354.6"/>
      <point x="290.0" y="298.8" type="curve" smooth="yes"/>
      <point x="395.6" y="263.2"/>
      <point x="420.6" y="221.6"/>
      <point x="420.6" y="179.2" type="curve"/>
      <point x="420.6" y="137.6"/>
      <point x="380.4" y="99.80000000000001"/>
      <point x="297.4" y="99.80000000000001" type="curve"/>
      <point x="218.79999999999998" y="99.80000000000001"/>
      <point x="172.0" y="136.0"/>
      <point x="172.0" y="189.8" type="curve"/>
      <point x="172.0" y="242.2"/>
      <point x="215.20000000000002" y="293.0"/>
      <point x="288.0" y="309.0" type="curve"/>
      <point x="214.8" y="351.0" type="line"/>
      <point x="106.80000000000001" y="330.6"/>
      <point x="45.0" y="263.0"/>
    </contour>
  </outline>
</glyph>
<glyph name="nine" format="1">
  <advance width="600.0"/>
  <unicode hex="0039"/>
  <outline>
    <contour>
      <point x="43.0" y="465.0" type="curve" smooth="yes"/>
      <point x="43.0" y="331.20000000000005"/>
      <point x="135.0" y="243.8"/>
      <point x="259.0" y="243.8" type="curve" smooth="yes"/>
      <point x="329.0" y="243.8"/>
      <point x="395.2" y="279.4"/>
      <point x="430.0" y="334.0" type="curve"/>
      <point x="430.0" y="420.0" type="line"/>
      <point x="393.4" y="382.6"/>
      <point x="340.6" y="355.0"/>
      <point x="288.20000000000005" y="355.0" type="curve" smooth="yes"/>
      <point x="222.8" y="355.0"/>
      <point x="175.0" y="399.0"/>
      <point x="175.0" y="468.0" type="curve" smooth="yes"/>
      <point x="175.0" y="534.6"/>
      <point x="223.8" y="585.8"/>
      <point x="286.6" y="585.8" type="curve"/>
      <point x="363.20000000000005" y="585.8"/>
      <point x="422.6" y="516.2"/>
      <point x="422.6" y="370.0" type="curve"/>
      <point x="422.6" y="179.0"/>
      <point x="329.8" y="104.19999999999999"/>
      <point x="245.4" y="104.19999999999999" type="curve"/>
      <point x="202.60000000000002" y="104.19999999999999"/>
      <point x="169.0" y="117.2"/>
      <point x="134.0" y="145.0" type="curve"/>
      <point x="73.0" y="38.6" type="line"/>
      <point x="121.80000000000001" y="4.6"/>
      <point x="181.0" y="-11.2"/>
      <point x="243.2" y="-11.2" type="curve"/>
      <point x="405.0" y="-11.2"/>
      <point x="557.0" y="116.60000000000001"/>
      <point x="557.0" y="370.0" type="curve"/>
      <point x="557.0" y="580.0"/>
      <point x="444.2" y="701.2"/>
      <point x="291.6" y="701.2" type="curve"/>
      <point x="146.8" y="701.2"/>
      <point x="43.0" y="603.0"/>
    </contour>
  </outline>
</glyph>
<glyph name="less" format="1">
  <advance width="600.0"/>
  <unicode hex="003C"/>
  <outline>
    <contour>
      <point x="69.6" y="237.8" type="line"/>
      <point x="504.8" y="45.4" type="line"/>
      <point x="504.8" y="175.0" type="line"/>
      <point x="168.4" y="313.4" type="line"/>
      <point x="69.6" y="314.20000000000005" type="line"/>
    </contour>
    <contour>
      <point x="69.6" y="270.2" type="line"/>
      <point x="168.4" y="269.79999999999995" type="line"/>
      <point x="504.8" y="406.2" type="line"/>
      <point x="504.8" y="532.2" type="line"/>
      <point x="69.6" y="339.8" type="line"/>
    </contour>
  </outline>
</glyph>
<glyph name="question" format="1">
  <advance width="514.0"/>
  <unicode hex="003F"/>
  <outline>
    <contour>
      <point x="164.6" y="68.8" type="curve" smooth="yes"/>
      <point x="164.6" y="23.6"/>
      <point x="198.39999999999998" y="-11.2"/>
      <point x="245.39999999999998" y="-11.2" type="curve" smooth="yes"/>
      <point x="293.2" y="-11.2"/>
      <point x="326.2" y="23.6"/>
      <point x="326.2" y="68.8" type="curve" smooth="yes"/>
      <point x="326.2" y="115.0"/>
      <point x="293.2" y="149.2"/>
      <point x="245.39999999999998" y="149.2" type="curve" smooth="yes"/>
      <point x="198.39999999999998" y="149.2"/>
      <point x="164.6" y="115.0"/>
    </contour>
    <contour>
      <point x="16.0" y="592.2" type="curve"/>
      <point x="94.0" y="499.2" type="line"/>
      <point x="136.4" y="551.6"/>
      <point x="176.8" y="576.6"/>
      <point x="232.2" y="576.6" type="curve"/>
      <point x="285.79999999999995" y="576.6"/>
      <point x="319.0" y="543.0"/>
      <point x="319.0" y="502.2" type="curve"/>
      <point x="319.0" y="469.2"/>
      <point x="298.0" y="439.2"/>
      <point x="238.4" y="398.0" type="curve" smooth="yes"/>
      <point x="201.4" y="372.6"/>
      <point x="183.60000000000002" y="339.4"/>
      <point x="188.0" y="289.2" type="curve" smooth="yes"/>
      <point x="193.4" y="231.0" type="line"/>
      <point x="296.4" y="231.0" type="line"/>
      <point x="298.79999999999995" y="267.2" type="line" smooth="yes"/>
      <point x="300.6" y="296.2"/>
      <point x="309.0" y="312.79999999999995"/>
      <point x="334.8" y="328.6" type="curve" smooth="yes"/>
      <point x="423.0" y="386.8"/>
      <point x="457.0" y="441.40000000000003"/>
      <point x="457.0" y="511.8" type="curve"/>
      <point x="457.0" y="625.4"/>
      <point x="367.20000000000005" y="701.2"/>
      <point x="245.4" y="701.2" type="curve"/>
      <point x="153.2" y="701.2"/>
      <point x="73.8" y="657.2"/>
    </contour>
  </outline>
</glyph>
<glyph name="at" format="1">
  <advance width="996.4000000000001"/>
  <unicode hex="0040"/>
  <outline>
    <contour>
      <point x="53.0" y="253.8" type="curve"/>
      <point x="53.0" y="-12.0"/>
      <point x="219.8" y="-196.2"/>
      <point x="510.20000000000005" y="-196.2" type="curve"/>
      <point x="605.6" y="-196.2"/>
      <point x="689.0" y="-180.0"/>
      <point x="753.2" y="-154.8" type="curve"/>
      <point x="717.4" y="-59.400000000000006" type="line"/>
      <point x="657.8" y="-82.8"/>
      <point x="585.2" y="-99.8"/>
      <point x="509.6" y="-99.8" type="curve"/>
      <point x="288.2" y="-99.8"/>
      <point x="160.8" y="43.4"/>
      <point x="160.8" y="252.0" type="curve"/>
      <point x="160.8" y="460.4"/>
      <point x="291.4" y="604.8"/>
      <point x="512.8" y="604.8" type="curve"/>
      <point x="726.4" y="604.8"/>
      <point x="835.5999999999999" y="459.4"/>
      <point x="835.5999999999999" y="265.6" type="curve"/>
      <point x="835.5999999999999" y="131.8"/>
      <point x="797.8" y="85.2"/>
      <point x="753.4000000000001" y="85.2" type="curve"/>
      <point x="721.8" y="85.2"/>
      <point x="702.6" y="107.0"/>
      <point x="702.6" y="152.2" type="curve"/>
      <point x="702.6" y="371.20000000000005" type="line" smooth="yes"/>
      <point x="702.6" y="399.2"/>
      <point x="704.6" y="419.0"/>
      <point x="709.6" y="448.0" type="curve"/>
      <point x="717.6" y="495.0" type="line"/>
      <point x="595.6" y="495.0" type="line"/>
      <point x="575.8" y="395.0" type="line"/>
      <point x="575.8" y="152.0" type="line"/>
      <point x="580.4" y="107.8" type="line"/>
      <point x="599.8" y="26.400000000000002"/>
      <point x="658.4000000000001" y="-11.2"/>
      <point x="738.0" y="-11.2" type="curve"/>
      <point x="865.0" y="-11.2"/>
      <point x="943.4000000000001" y="84.2"/>
      <point x="943.4000000000001" y="265.6" type="curve"/>
      <point x="943.4000000000001" y="529.8"/>
      <point x="777.6" y="701.2"/>
      <point x="510.4" y="701.2" type="curve"/>
      <point x="242.39999999999998" y="701.2"/>
      <point x="53.0" y="520.2"/>
    </contour>
    <contour>
      <point x="254.0" y="256.6" type="curve" smooth="yes"/>
      <point x="254.0" y="103.4"/>
      <point x="336.0" y="8.8"/>
      <point x="433.0" y="8.8" type="curve" smooth="yes"/>
      <point x="497.4" y="8.8"/>
      <point x="551.6" y="47.8"/>
      <point x="590.8" y="103.8" type="curve"/>
      <point x="590.8" y="189.0" type="line"/>
      <point x="557.6" y="149.0"/>
      <point x="514.0" y="124.39999999999999"/>
      <point x="473.0" y="124.39999999999999" type="curve" smooth="yes"/>
      <point x="419.79999999999995" y="124.39999999999999"/>
      <point x="381.6" y="171.2"/>
      <point x="381.6" y="262.6" type="curve" smooth="yes"/>
      <point x="381.6" y="349.8"/>
      <point x="423.8" y="404.6"/>
      <point x="485.79999999999995" y="404.6" type="curve" smooth="yes"/>
      <point x="536.0" y="404.6"/>
      <point x="575.8" y="361.8"/>
      <point x="575.8" y="266.0" type="curve"/>
      <point x="623.0" y="273.0" type="line"/>
      <point x="623.0" y="430.2"/>
      <point x="547.0" y="506.2"/>
      <point x="452.79999999999995" y="506.2" type="curve" smooth="yes"/>
      <point x="337.6" y="506.2"/>
      <point x="254.0" y="416.4"/>
    </contour>
  </outline>
</glyph>
<glyph name="H" format="1">
  <advance width="746.8"/>
  <unicode hex="0048"/>
  <outline>
    <contour>
      <point x="91.0" y="0.0" type="line"/>
      <point x="225.4" y="0.0" type="line"/>
      <point x="225.4" y="690.0" type="line"/>
      <point x="91.0" y="690.0" type="line"/>
    </contour>
    <contour>
      <point x="155.39999999999998" y="289.6" type="line"/>
      <point x="591.4" y="289.6" type="line"/>
      <point x="591.4" y="408.0" type="line"/>
      <point x="155.39999999999998" y="408.0" type="line"/>
    </contour>
    <contour>
      <point x="521.4" y="0.0" type="line"/>
      <point x="655.8" y="0.0" type="line"/>
      <point x="655.8" y="690.0" type="line"/>
      <point x="521.4" y="690.0" type="line"/>
    </contour>
    <contour>
      <point x="373.4" y="690.0" type="move" name="top"/>
    </contour>
  </outline>
</glyph>
<glyph name="O" format="1">
  <advance width="736.8"/>
  <unicode hex="004F"/>
  <outline>
    <contour>
      <point x="51.0" y="345.0" type="curve" smooth="yes"/>
      <point x="51.0" y="118.0"/>
      <point x="194.0" y="-11.2"/>
      <point x="368.4" y="-11.2" type="curve" smooth="yes"/>
      <point x="542.8" y="-11.2"/>
      <point x="685.8" y="118.0"/>
      <point x="685.8" y="345.0" type="curve" smooth="yes"/>
      <point x="685.8" y="572.0"/>
      <point x="542.8" y="701.2"/>
      <point x="368.4" y="701.2" type="curve" smooth="yes"/>
      <point x="194.0" y="701.2"/>
      <point x="51.0" y="572.0"/>
    </contour>
    <contour>
      <point x="188.4" y="345.0" type="curve" smooth="yes"/>
      <point x="188.4" y="502.2"/>
      <point x="265.2" y="579.8"/>
      <point x="368.4" y="579.8" type="curve" smooth="yes"/>
      <point x="471.59999999999997" y="579.8"/>
      <point x="548.4" y="502.2"/>
      <point x="548.4" y="345.0" type="curve" smooth="yes"/>
      <point x="548.4" y="187.8"/>
      <point x="471.59999999999997" y="110.19999999999999"/>
      <point x="368.4" y="110.19999999999999" type="curve" smooth="yes"/>
      <point x="265.2" y="110.19999999999999"/>
      <point x="188.4" y="187.8"/>
    </contour>
    <contour>
      <point x="368.4" y="690.0" type="move" name="top"/>
    </contour>
    <contour>
      <point x="394.0" y="0.0" type="move" name="ogonek"/>
    </contour>
    <contour>
      <point x="368.4" y="0.0" type="move" name="bottom"/>
    </contour>
  </outline>
</glyph>
<glyph name="Q" format="1">
  <advance width="736.8"/>
  <unicode hex="0051"/>
  <outline>
    <contour>
      <point x="417.0" y="9.6" type="line"/>
      <point x="448.0" y="-111.6"/>
      <point x="529.0" y="-167.60000000000002"/>
      <point x="670.4000000000001" y="-169.2" type="curve"/>
      <point x="670.4000000000001" y="-41.6" type="line"/>
      <point x="592.2" y="-41.6"/>
      <point x="545.2" y="-17.6"/>
      <point x="522.4" y="50.4" type="curve"/>
    </contour>
    <contour>
      <point x="51.0" y="345.0" type="curve" smooth="yes"/>
      <point x="51.0" y="118.0"/>
      <point x="194.0" y="-11.2"/>
      <point x="368.4" y="-11.2" type="curve" smooth="yes"/>
      <point x="542.8" y="-11.2"/>
      <point x="685.8" y="118.0"/>
      <point x="685.8" y="345.0" type="curve" smooth="yes"/>
      <point x="685.8" y="572.0"/>
      <point x="542.8" y="701.2"/>
      <point x="368.4" y="701.2" type="curve" smooth="yes"/>
      <point x="194.0" y="701.2"/>
      <point x="51.0" y="572.0"/>
    </contour>
    <contour>
      <point x="188.4" y="345.0" type="curve" smooth="yes"/>
      <point x="188.4" y="502.2"/>
      <point x="265.2" y="579.8"/>
      <point x="368.4" y="579.8" type="curve" smooth="yes"/>
      <point x="471.59999999999997" y="579.8"/>
      <point x="548.4" y="502.2"/>
      <point x="548.4" y="345.0" type="curve" smooth="yes"/>
      <point x="548.4" y="187.8"/>
      <point x="471.59999999999997" y="110.19999999999999"/>
      <point x="368.4" y="110.19999999999999" type="curve" smooth="yes"/>
      <point x="265.2" y="110.19999999999999"/>
      <point x="188.4" y="187.8"/>
    </contour>
  </outline>
</glyph>
<glyph name="R" format="1">
  <advance width="655.4"/>
  <unicode hex="0052"/>
  <outline>
    <contour>
      <point x="91.0" y="0.0" type="line"/>
      <point x="225.4" y="0.0" type="line"/>
      <point x="225.4" y="690.0" type="line"/>
      <point x="91.0" y="690.0" type="line"/>
    </contour>
    <contour>
      <point x="155.39999999999998" y="248.0" type="line"/>
      <point x="341.4" y="248.0" type="line" smooth="yes"/>
      <point x="482.4" y="248.0"/>
      <point x="593.2" y="327.2"/>
      <point x="593.2" y="466.0" type="curve" smooth="yes"/>
      <point x="593.2" y="608.0"/>
      <point x="482.4" y="690.0"/>
      <point x="341.4" y="690.0" type="curve" smooth="yes"/>
      <point x="155.39999999999998" y="690.0" type="line"/>
      <point x="155.39999999999998" y="571.6" type="line"/>
      <point x="330.4" y="571.6" type="line" smooth="yes"/>
      <point x="403.8" y="571.6"/>
      <point x="455.79999999999995" y="535.8"/>
      <point x="455.79999999999995" y="466.0" type="curve" smooth="yes"/>
      <point x="455.79999999999995" y="395.79999999999995"/>
      <point x="403.4" y="359.20000000000005"/>
      <point x="330.4" y="359.20000000000005" type="curve" smooth="yes"/>
      <point x="155.39999999999998" y="359.20000000000005" type="line"/>
    </contour>
    <contour>
      <point x="298.0" y="290.0" type="line"/>
      <point x="460.6" y="0.0" type="line"/>
      <point x="612.4" y="0.0" type="line"/>
      <point x="435.4" y="290.0" type="line"/>
    </contour>
    <contour>
      <point x="320.4" y="690.0" type="move" name="top"/>
    </contour>
    <contour>
      <point x="336.0" y="0.0" type="move" name="bottom"/>
    </contour>
  </outline>
</glyph>
<glyph name="T" format="1">
  <advance width="582.0"/>
  <unicode hex="0054"/>
  <outline>
    <contour>
      <point x="27.0" y="571.6" type="line"/>
      <point x="555.0" y="571.6" type="line"/>
      <point x="555.0" y="690.0" type="line"/>
      <point x="27.0" y="690.0" type="line"/>
    </contour>
    <contour>
      <point x="223.8" y="0.0" type="line"/>
      <point x="358.2" y="0.0" type="line"/>
      <point x="358.2" y="690.0" type="line"/>
      <point x="223.8" y="690.0" type="line"/>
    </contour>
    <contour>
      <point x="291.0" y="690.0" type="move" name="top"/>
    </contour>
    <contour>
      <point x="291.0" y="0.0" type="move" name="bottom"/>
    </contour>
  </outline>
</glyph>
<glyph name="U" format="1">
  <advance width="716.8"/>
  <unicode hex="0055"/>
  <outline>
    <contour>
      <point x="81.0" y="265.0" type="line" smooth="yes"/>
      <point x="81.0" y="87.80000000000001"/>
      <point x="202.2" y="-11.2"/>
      <point x="358.4" y="-11.2" type="curve" smooth="yes"/>
      <point x="514.6" y="-11.2"/>
      <point x="635.8" y="87.80000000000001"/>
      <point x="635.8" y="265.0" type="curve" smooth="yes"/>
      <point x="635.8" y="690.0" type="line"/>
      <point x="504.6" y="690.0" type="line"/>
      <point x="504.6" y="281.0" type="line" smooth="yes"/>
      <point x="504.6" y="165.8"/>
      <point x="445.20000000000005" y="110.19999999999999"/>
      <point x="360.0" y="110.19999999999999" type="curve" smooth="yes"/>
      <point x="274.8" y="110.19999999999999"/>
      <point x="215.4" y="165.8"/>
      <point x="215.4" y="281.0" type="curve" smooth="yes"/>
      <point x="215.4" y="690.0" type="line"/>
      <point x="81.0" y="690.0" type="line"/>
    </contour>
    <contour>
      <point x="359.6" y="690.0" type="move" name="top"/>
    </contour>
    <contour>
      <point x="386.0" y="0.0" type="move" name="ogonek"/>
    </contour>
    <contour>
      <point x="358.4" y="0.0" type="move" name="bottom"/>
    </contour>
  </outline>
</glyph>
<glyph name="W" format="1">
  <advance width="958.0"/>
  <unicode hex="0057"/>
  <outline>
    <contour>
      <point x="8.0" y="690.0" type="line"/>
      <point x="218.2" y="0.0" type="line"/>
      <point x="297.2" y="0.0" type="line"/>
      <point x="298.8" y="138.60000000000002" type="line"/>
      <point x="149.6" y="690.0" type="line"/>
    </contour>
    <contour>
      <point x="265.4" y="138.60000000000002" type="line"/>
      <point x="268.6" y="0.0" type="line"/>
      <point x="340.8" y="0.0" type="line"/>
      <point x="505.40000000000003" y="553.6" type="line"/>
      <point x="505.40000000000003" y="690.0" type="line"/>
      <point x="425.2" y="690.0" type="line"/>
    </contour>
    <contour>
      <point x="453.0" y="553.6" type="line"/>
      <point x="616.4000000000001" y="0.0" type="line"/>
      <point x="694.8" y="0.0" type="line"/>
      <point x="696.4" y="138.60000000000002" type="line"/>
      <point x="536.8" y="690.0" type="line"/>
      <point x="453.0" y="690.0" type="line"/>
    </contour>
    <contour>
      <point x="663.6" y="138.60000000000002" type="line"/>
      <point x="666.8" y="0.0" type="line"/>
      <point x="739.6" y="0.0" type="line"/>
      <point x="950.0" y="690.0" type="line"/>
      <point x="812.4000000000001" y="690.0" type="line"/>
    </contour>
    <contour>
      <point x="478.8" y="690.0" type="move" name="top"/>
    </contour>
  </outline>
</glyph>
<glyph name="X" format="1">
  <advance width="632.0"/>
  <unicode hex="0058"/>
  <outline>
    <contour>
      <point x="15.0" y="0.0" type="line"/>
      <point x="166.39999999999998" y="0.0" type="line"/>
      <point x="327.6" y="268.4" type="line"/>
      <point x="373.4" y="326.2" type="line"/>
      <point x="607.0" y="690.0" type="line"/>
      <point x="455.6" y="690.0" type="line"/>
      <point x="305.0" y="438.40000000000003" type="line"/>
      <point x="259.20000000000005" y="380.0" type="line"/>
    </contour>
    <contour>
      <point x="25.0" y="690.0" type="line"/>
      <point x="278.20000000000005" y="293.2" type="line"/>
      <point x="460.20000000000005" y="0.0" type="line"/>
      <point x="617.0" y="0.0" type="line"/>
      <point x="355.4" y="410.20000000000005" type="line"/>
      <point x="181.8" y="690.0" type="line"/>
    </contour>
  </outline>
</glyph>
<glyph name="Z" format="1">
  <advance width="633.2"/>
  <unicode hex="005A"/>
  <outline>
    <contour>
      <point x="57.0" y="89.4" type="line"/>
      <point x="153.4" y="0.0" type="line"/>
      <point x="566.2" y="600.6" type="line"/>
      <point x="469.8" y="690.0" type="line"/>
    </contour>
    <contour>
      <point x="57.0" y="0.0" type="line"/>
      <point x="576.2" y="0.0" type="line"/>
      <point x="576.2" y="118.4" type="line"/>
      <point x="110.8" y="118.4" type="line"/>
      <point x="57.0" y="89.4" type="line"/>
    </contour>
    <contour>
      <point x="67.0" y="571.6" type="line"/>
      <point x="511.8" y="571.6" type="line"/>
      <point x="566.2" y="600.6" type="line"/>
      <point x="566.2" y="690.0" type="line"/>
      <point x="67.0" y="690.0" type="line"/>
    </contour>
    <contour>
      <point x="316.6" y="690.0" type="move" name="top"/>
    </contour>
  </outline>
</glyph>
<glyph name="bracketleft" format="1">
  <advance width="320.0"/>
  <unicode hex="005B"/>
  <outline>
    <contour>
      <point x="91.0" y="-275.0" type="line"/>
      <point x="207.8" y="-275.0" type="line"/>
      <point x="207.8" y="810.0" type="line"/>
      <point x="91.0" y="810.0" type="line"/>
    </contour>
    <contour>
      <point x="91.0" y="-275.0" type="line"/>
      <point x="360.0" y="-275.0" type="line"/>
      <point x="360.0" y="-175.0" type="line"/>
      <point x="91.0" y="-175.0" type="line"/>
    </contour>
    <contour>
      <point x="91.0" y="710.0" type="line"/>
      <point x="360.0" y="710.0" type="line"/>
      <point x="360.0" y="810.0" type="line"/>
      <point x="91.0" y="810.0" type="line"/>
    </contour>
  </outline>
</glyph>
<glyph name="backslash" format="1">
  <advance width="370.79999999999995"/>
  <unicode hex="005C"/>
  <outline>
    <contour>
      <point x="0.0" y="720.0" type="line"/>
      <point x="248.2" y="-30.0" type="line"/>
      <point x="370.79999999999995" y="-30.0" type="line"/>
      <point x="122.6" y="720.0" type="line"/>
    </contour>
  </outline>
</glyph>
<glyph name="asciicircum" format="1">
  <advance width="600.0"/>
  <unicode hex="005E"/>
  <outline>
    <contour>
      <point x="63.199999999999996" y="254.79999999999998" type="line"/>
      <point x="189.2" y="254.79999999999998" type="line"/>
      <point x="325.6" y="591.2" type="line"/>
      <point x="324.6" y="690.0" type="line"/>
      <point x="255.60000000000002" y="690.0" type="line"/>
    </contour>
    <contour>
      <point x="280.6" y="690.0" type="line"/>
      <point x="282.0" y="591.2" type="line"/>
      <point x="420.4" y="254.79999999999998" type="line"/>
      <point x="550.0" y="254.79999999999998" type="line"/>
      <point x="357.6" y="690.0" type="line"/>
    </contour>
  </outline>
</glyph>
<glyph name="underscore" format="1">
  <advance width="444.79999999999995"/>
  <unicode hex="005F"/>
  <outline>
    <contour>
      <point x="0.0" y="-104.6" type="line"/>
      <point x="444.79999999999995" y="-104.6" type="line"/>
      <point x="444.79999999999995" y="0.0" type="line"/>
      <point x="0.0" y="0.0" type="line"/>
    </contour>
  </outline>
</glyph>
<glyph name="grave" format="1">
  <advance width="600.0"/>
  <unicode hex="0060"/>
  <outline>
    <contour>
      <point x="127.19999999999999" y="746.0" type="line"/>
      <point x="254.60000000000002" y="596.0" type="line"/>
      <point x="357.6" y="596.0" type="line"/>
      <point x="274.2" y="746.0" type="line"/>
    </contour>
    <contour>
      <point x="300.0" y="521.0" type="move" name="_top"/>
    </contour>
  </outline>
</glyph>
<glyph name="a" format="1">
  <advance width="551.4"/>
  <unicode hex="0061"/>
  <outline>
    <contour>
      <point x="45.0" y="135.6" type="curve"/>
      <point x="45.0" y="46.4"/>
      <point x="114.4" y="-11.2"/>
      <point x="194.8" y="-11.2" type="curve"/>
      <point x="266.4" y="-11.2"/>
      <point x="328.8" y="27.4"/>
      <point x="363.6" y="80.8" type="curve"/>
      <point x="363.6" y="160.6" type="line"/>
      <point x="325.6" y="117.0"/>
      <point x="277.2" y="89.6"/>
      <point x="226.8" y="89.6" type="curve"/>
      <point x="189.4" y="89.6"/>
      <point x="163.6" y="111.2"/>
      <point x="163.6" y="149.0" type="curve"/>
      <point x="163.6" y="187.2"/>
      <point x="194.6" y="222.8"/>
      <point x="300.0" y="230.4" type="curve" smooth="yes"/>
      <point x="371.6" y="235.2" type="line"/>
      <point x="371.6" y="312.2" type="line"/>
      <point x="292.4" y="309.6" type="line" smooth="yes"/>
      <point x="118.0" y="303.6"/>
      <point x="45.0" y="229.4"/>
    </contour>
    <contour>
      <point x="61.2" y="484.6" type="curve"/>
      <point x="98.0" y="382.6" type="line"/>
      <point x="138.8" y="404.0"/>
      <point x="186.4" y="422.0"/>
      <point x="241.2" y="422.0" type="curve"/>
      <point x="311.8" y="422.0"/>
      <point x="348.6" y="387.0"/>
      <point x="348.6" y="316.4" type="curve" smooth="yes"/>
      <point x="348.6" y="100.0" type="line"/>
      <point x="368.4" y="0.0" type="line"/>
      <point x="490.4" y="0.0" type="line"/>
      <point x="482.4" y="47.0" type="line" smooth="yes"/>
      <point x="477.4" y="76.0"/>
      <point x="475.4" y="95.8"/>
      <point x="475.4" y="123.80000000000001" type="curve" smooth="yes"/>
      <point x="475.4" y="325.6" type="line" smooth="yes"/>
      <point x="475.4" y="462.0"/>
      <point x="384.79999999999995" y="532.2"/>
      <point x="258.6" y="532.2" type="curve"/>
      <point x="185.60000000000002" y="532.2"/>
      <point x="110.6" y="510.0"/>
    </contour>
    <contour>
      <point x="264.4" y="521.0" type="move" name="top"/>
    </contour>
    <contour>
      <point x="368.4" y="0.0" type="move" name="ogonek"/>
    </contour>
    <contour>
      <point x="264.4" y="0.0" type="move" name="bottom"/>
    </contour>
  </outline>
</glyph>
<glyph name="d" format="1">
  <advance width="600.4"/>
  <unicode hex="0064"/>
  <outline>
    <contour>
      <point x="44.8" y="259.6" type="curve" smooth="yes"/>
      <point x="44.8" y="92.6"/>
      <point x="134.2" y="-11.2"/>
      <point x="239.8" y="-11.2" type="curve" smooth="yes"/>
      <point x="308.2" y="-11.2"/>
      <point x="366.0" y="27.8"/>
      <point x="407.6" y="83.8" type="curve"/>
      <point x="407.6" y="172.0" type="line"/>
      <point x="371.4" y="129.8"/>
      <point x="325.0" y="104.39999999999999"/>
      <point x="279.8" y="104.39999999999999" type="curve" smooth="yes"/>
      <point x="217.0" y="104.39999999999999"/>
      <point x="172.4" y="158.8"/>
      <point x="172.4" y="265.6" type="curve" smooth="yes"/>
      <point x="172.4" y="367.2"/>
      <point x="221.0" y="430.6"/>
      <point x="292.6" y="430.6" type="curve"/>
      <point x="348.4" y="430.6"/>
      <point x="392.6" y="387.8"/>
      <point x="392.6" y="292.0" type="curve"/>
      <point x="439.8" y="299.0" type="line"/>
      <point x="439.8" y="451.4"/>
      <point x="359.4" y="532.2"/>
      <point x="262.20000000000005" y="532.2" type="curve"/>
      <point x="135.4" y="532.2"/>
      <point x="44.8" y="433.79999999999995"/>
    </contour>
    <contour>
      <point x="412.4" y="0.0" type="line"/>
      <point x="534.4" y="0.0" type="line"/>
      <point x="526.4" y="47.0" type="line" smooth="yes"/>
      <point x="521.4" y="76.0"/>
      <point x="519.4" y="95.8"/>
      <point x="519.4" y="123.80000000000001" type="curve" smooth="yes"/>
      <point x="519.4" y="735.0" type="line"/>
      <point x="392.6" y="715.0" type="line"/>
      <point x="392.6" y="100.0" type="line"/>
    </contour>
    <contour>
      <point x="600.4" y="720.0" type="move" name="caron.alt"/>
    </contour>
  </outline>
</glyph>
<glyph name="e" format="1">
  <advance width="559.6"/>
  <unicode hex="0065"/>
  <outline>
    <contour>
      <point x="44.8" y="252.0" type="curve" smooth="yes"/>
      <point x="44.8" y="87.2"/>
      <point x="148.8" y="-11.2"/>
      <point x="312.6" y="-11.2" type="curve" smooth="yes"/>
      <point x="379.6" y="-11.2"/>
      <point x="438.2" y="6.6000000000000005"/>
      <point x="485.4" y="34.0" type="curve"/>
      <point x="443.6" y="130.4" type="line"/>
      <point x="410.8" y="110.0"/>
      <point x="367.20000000000005" y="95.6"/>
      <point x="324.0" y="95.6" type="curve" smooth="yes"/>
      <point x="234.0" y="95.6"/>
      <point x="170.0" y="147.2"/>
      <point x="170.0" y="258.0" type="curve" smooth="yes"/>
      <point x="170.0" y="376.0"/>
      <point x="219.60000000000002" y="429.6"/>
      <point x="288.8" y="429.6" type="curve" smooth="yes"/>
      <point x="351.4" y="429.6"/>
      <point x="394.20000000000005" y="383.0"/>
      <point x="394.20000000000005" y="270.0" type="curve"/>
      <point x="420.0" y="309.4" type="line"/>
      <point x="140.6" y="309.4" type="line"/>
      <point x="140.6" y="222.79999999999998" type="line"/>
      <point x="512.8" y="222.79999999999998" type="line"/>
      <point x="514.4" y="234.8"/>
      <point x="516.6" y="252.6"/>
      <point x="516.6" y="271.20000000000005" type="curve" smooth="yes"/>
      <point x="516.6" y="437.8"/>
      <point x="424.0" y="532.2"/>
      <point x="291.0" y="532.2" type="curve" smooth="yes"/>
      <point x="149.2" y="532.2"/>
      <point x="44.8" y="427.2"/>
    </contour>
    <contour>
      <point x="291.0" y="521.0" type="move" name="top"/>
    </contour>
    <contour>
      <point x="365.0" y="0.0" type="move" name="ogonek"/>
    </contour>
    <contour>
      <point x="291.0" y="0.0" type="move" name="bottom"/>
    </contour>
  </outline>
</glyph>
<glyph name="f" format="1">
  <advance width="379.0"/>
  <unicode hex="0066"/>
  <outline>
    <contour>
      <point x="17.0" y="420.0" type="line"/>
      <point x="376.2" y="420.0" type="line"/>
      <point x="376.2" y="521.0" type="line"/>
      <point x="17.0" y="521.0" type="line"/>
    </contour>
    <contour>
      <point x="107.0" y="0.0" type="line"/>
      <point x="233.8" y="0.0" type="line"/>
      <point x="233.8" y="536.6" type="line" smooth="yes"/>
      <point x="233.8" y="593.9542168674698"/>
      <point x="257.2" y="626.4000000000001"/>
      <point x="309.6" y="626.4000000000001" type="curve" smooth="yes"/>
      <point x="331.6" y="626.4000000000001"/>
      <point x="355.4" y="621.5999999999999"/>
      <point x="379.20000000000005" y="613.2" type="curve"/>
      <point x="396.0" y="710.6" type="line"/>
      <point x="363.4" y="723.4000000000001"/>
      <point x="323.2" y="731.2"/>
      <point x="287.6" y="731.2" type="curve" smooth="yes"/>
      <point x="179.4" y="731.2"/>
      <point x="107.0" y="658.7521472392639"/>
      <point x="107.0" y="536.6" type="curve" smooth="yes"/>
    </contour>
  </outline>
</glyph>
<glyph name="i" format="1">
  <advance width="288.8"/>
  <unicode hex="0069"/>
  <outline>
    <contour>
      <point x="81.0" y="0.0" type="line"/>
      <point x="207.8" y="0.0" type="line"/>
      <point x="207.8" y="521.0" type="line"/>
      <point x="81.0" y="521.0" type="line"/>
    </contour>
    <contour>
      <point x="68.4" y="672.4" type="curve" smooth="yes"/>
      <point x="68.4" y="630.2"/>
      <point x="99.80000000000001" y="596.0"/>
      <point x="144.4" y="596.0" type="curve" smooth="yes"/>
      <point x="189.8" y="596.0"/>
      <point x="220.4" y="630.2"/>
      <point x="220.4" y="672.4" type="curve" smooth="yes"/>
      <point x="220.4" y="715.0"/>
      <point x="189.8" y="749.2"/>
      <point x="144.4" y="749.2" type="curve" smooth="yes"/>
      <point x="99.80000000000001" y="749.2"/>
      <point x="68.4" y="715.0"/>
    </contour>
    <contour>
      <point x="81.0" y="0.0" type="move" name="ogonek"/>
    </contour>
    <contour>
      <point x="144.4" y="0.0" type="move" name="bottom"/>
    </contour>
  </outline>
</glyph>
<glyph name="k" format="1">
  <advance width="558.2"/>
  <unicode hex="006B"/>
  <outline>
    <contour>
      <point x="81.0" y="0.0" type="line"/>
      <point x="207.8" y="0.0" type="line"/>
      <point x="207.8" y="735.0" type="line"/>
      <point x="81.0" y="715.0" type="line"/>
    </contour>
    <contour>
      <point x="171.8" y="127.0" type="line"/>
      <point x="538.4" y="521.0" type="line"/>
      <point x="380.0" y="521.0" type="line"/>
      <point x="171.8" y="276.6" type="line"/>
    </contour>
    <contour>
      <point x="239.79999999999998" y="266.6" type="line"/>
      <point x="404.79999999999995" y="0.0" type="line"/>
      <point x="552.2" y="0.0" type="line"/>
      <point x="322.0" y="346.2" type="line"/>
    </contour>
    <contour>
      <point x="300.4" y="0.0" type="move" name="bottom"/>
    </contour>
  </outline>
</glyph>
<glyph name="l" format="1">
  <advance width="288.8"/>
  <unicode hex="006C"/>
  <outline>
    <contour>
      <point x="81.0" y="0.0" type="line"/>
      <point x="207.8" y="0.0" type="line"/>
      <point x="207.8" y="735.0" type="line"/>
      <point x="81.0" y="715.0" type="line"/>
    </contour>
    <contour>
      <point x="144.4" y="720.0" type="move" name="top"/>
    </contour>
    <contour>
      <point x="288.8" y="720.0" type="move" name="caron.alt"/>
    </contour>
    <contour>
      <point x="144.4" y="0.0" type="move" name="bottom"/>
    </contour>
  </outline>
</glyph>
<glyph name="o" format="1">
  <advance width="584.0"/>
  <unicode hex="006F"/>
  <outline>
    <contour>
      <point x="44.8" y="260.0" type="curve" smooth="yes"/>
      <point x="44.8" y="89.4"/>
      <point x="147.8" y="-11.2"/>
      <point x="292.0" y="-11.2" type="curve" smooth="yes"/>
      <point x="436.2" y="-11.2"/>
      <point x="539.2" y="89.4"/>
      <point x="539.2" y="260.0" type="curve" smooth="yes"/>
      <point x="539.2" y="430.59999999999997"/>
      <point x="436.2" y="532.2"/>
      <point x="292.0" y="532.2" type="curve" smooth="yes"/>
      <point x="147.8" y="532.2"/>
      <point x="44.8" y="430.59999999999997"/>
    </contour>
    <contour>
      <point x="173.6" y="260.0" type="curve" smooth="yes"/>
      <point x="173.6" y="371.6"/>
      <point x="219.2" y="427.20000000000005"/>
      <point x="292.0" y="427.20000000000005" type="curve" smooth="yes"/>
      <point x="364.8" y="427.20000000000005"/>
      <point x="410.4" y="371.6"/>
      <point x="410.4" y="260.0" type="curve" smooth="yes"/>
      <point x="410.4" y="148.4"/>
      <point x="364.8" y="93.8"/>
      <point x="292.0" y="93.8" type="curve" smooth="yes"/>
      <point x="219.2" y="93.8"/>
      <point x="173.6" y="148.4"/>
    </contour>
    <contour>
      <point x="292.0" y="521.0" type="move" name="top"/>
    </contour>
    <contour>
      <point x="306.0" y="0.0" type="move" name="ogonek"/>
    </contour>
    <contour>
      <point x="292.0" y="0.0" type="move" name="bottom"/>
    </contour>
  </outline>
</glyph>
<glyph name="r" format="1">
  <advance width="393.4"/>
  <unicode hex="0072"/>
  <outline>
    <contour>
      <point x="66.0" y="521.0" type="line"/>
      <point x="74.0" y="474.0" type="line" smooth="yes"/>
      <point x="79.0" y="445.0"/>
      <point x="81.0" y="425.20000000000005"/>
      <point x="81.0" y="397.20000000000005" type="curve" smooth="yes"/>
      <point x="81.0" y="0.0" type="line"/>
      <point x="207.8" y="0.0" type="line"/>
      <point x="207.8" y="418.0" type="line"/>
      <point x="188.0" y="521.0" type="line"/>
    </contour>
    <contour>
      <point x="192.8" y="334.4" type="line"/>
      <point x="238.8" y="382.0"/>
      <point x="290.4" y="402.2"/>
      <point x="370.2" y="403.79999999999995" type="curve"/>
      <point x="370.2" y="532.2" type="line"/>
      <point x="295.8" y="532.2"/>
      <point x="232.2" y="489.2190476190476"/>
      <point x="192.8" y="419.2" type="curve"/>
    </contour>
    <contour>
      <point x="235.0" y="521.0" type="move" name="top"/>
    </contour>
    <contour>
      <point x="144.4" y="0.0" type="move" name="bottom"/>
    </contour>
  </outline>
</glyph>
<glyph name="s" format="1">
  <advance width="491.4"/>
  <unicode hex="0073"/>
  <outline>
    <contour>
      <point x="35.0" y="45.400000000000006" type="line"/>
      <point x="84.0" y="12.4"/>
      <point x="154.2" y="-11.2"/>
      <point x="231.2" y="-11.2" type="curve" smooth="yes"/>
      <point x="363.4" y="-11.2"/>
      <point x="449.6" y="54.6"/>
      <point x="449.6" y="147.8" type="curve" smooth="yes"/>
      <point x="449.6" y="226.0"/>
      <point x="403.20000000000005" y="278.4"/>
      <point x="270.4" y="321.6" type="curve" smooth="yes"/>
      <point x="197.6" y="344.79999999999995"/>
      <point x="177.6" y="359.20000000000005"/>
      <point x="177.6" y="386.4" type="curve" smooth="yes"/>
      <point x="177.6" y="411.2"/>
      <point x="202.39999999999998" y="429.4"/>
      <point x="250.8" y="429.4" type="curve" smooth="yes"/>
      <point x="296.0" y="429.4"/>
      <point x="347.6" y="410.8"/>
      <point x="384.4" y="388.4" type="curve"/>
      <point x="434.2" y="483.8" type="line"/>
      <point x="385.4" y="513.4"/>
      <point x="321.0" y="532.2"/>
      <point x="259.2" y="532.2" type="curve" smooth="yes"/>
      <point x="132.6" y="532.2"/>
      <point x="54.8" y="463.6"/>
      <point x="54.8" y="375.2" type="curve" smooth="yes"/>
      <point x="54.8" y="298.8"/>
      <point x="102.0" y="245.6"/>
      <point x="230.8" y="203.6" type="curve" smooth="yes"/>
      <point x="298.0" y="182.4"/>
      <point x="319.2" y="164.39999999999998"/>
      <point x="319.2" y="138.0" type="curve" smooth="yes"/>
      <point x="319.2" y="111.19999999999999"/>
      <point x="296.4" y="91.6"/>
      <point x="239.2" y="91.6" type="curve" smooth="yes"/>
      <point x="180.8" y="91.6"/>
      <point x="126.8" y="114.4"/>
      <point x="87.2" y="141.6" type="curve"/>
    </contour>
    <contour>
      <point x="259.2" y="521.0" type="move" name="top"/>
    </contour>
    <contour>
      <point x="231.2" y="0.0" type="move" name="bottom"/>
    </contour>
  </outline>
</glyph>
<glyph name="v" format="1">
  <advance width="516.4"/>
  <unicode hex="0076"/>
  <outline>
    <contour>
      <point x="4.0" y="521.0" type="line"/>
      <point x="202.4" y="0.0" type="line"/>
      <point x="282.4" y="0.0" type="line"/>
      <point x="282.0" y="102.0" type="line"/>
      <point x="140.8" y="521.0" type="line"/>
    </contour>
    <contour>
      <point x="240.39999999999998" y="102.0" type="line"/>
      <point x="240.8" y="0.0" type="line"/>
      <point x="314.0" y="0.0" type="line"/>
      <point x="512.4" y="521.0" type="line"/>
      <point x="379.6" y="521.0" type="line"/>
    </contour>
  </outline>
</glyph>
<glyph name="w" format="1">
  <advance width="791.6"/>
  <unicode hex="0077"/>
  <outline>
    <contour>
      <point x="16.0" y="521.0" type="line"/>
      <point x="183.2" y="0.0" type="line"/>
      <point x="265.6" y="0.0" type="line"/>
      <point x="265.2" y="101.80000000000001" type="line"/>
      <point x="151.2" y="521.0" type="line"/>
    </contour>
    <contour>
      <point x="221.2" y="101.80000000000001" type="line"/>
      <point x="221.60000000000002" y="0.0" type="line"/>
      <point x="291.2" y="0.0" type="line"/>
      <point x="417.59999999999997" y="380.8" type="line"/>
      <point x="417.59999999999997" y="521.0" type="line"/>
      <point x="345.6" y="521.0" type="line"/>
    </contour>
    <contour>
      <point x="374.0" y="380.8" type="line"/>
      <point x="500.4" y="0.0" type="line"/>
      <point x="576.8" y="0.0" type="line"/>
      <point x="576.4" y="101.80000000000001" type="line"/>
      <point x="450.0" y="521.0" type="line"/>
      <point x="374.0" y="521.0" type="line"/>
    </contour>
    <contour>
      <point x="532.4" y="101.80000000000001" type="line"/>
      <point x="532.8" y="0.0" type="line"/>
      <point x="608.4" y="0.0" type="line"/>
      <point x="775.6" y="521.0" type="line"/>
      <point x="644.4" y="521.0" type="line"/>
    </contour>
    <contour>
      <point x="395.6" y="521.0" type="move" name="top"/>
    </contour>
  </outline>
</glyph>
<glyph name="y" format="1">
  <advance width="516.4"/>
  <unicode hex="0079"/>
  <outline>
    <contour>
      <point x="4.0" y="521.0" type="line"/>
      <point x="207.2" y="0.0" type="line"/>
      <point x="284.2" y="0.0" type="line"/>
      <point x="283.2" y="102.0" type="line"/>
      <point x="142.0" y="521.0" type="line"/>
    </contour>
    <contour>
      <point x="21.0" y="-181.8" type="line"/>
      <point x="43.2" y="-190.0"/>
      <point x="71.2" y="-196.2"/>
      <point x="96.8" y="-196.2" type="curve"/>
      <point x="196.4" y="-196.2"/>
      <point x="255.6" y="-137.2"/>
      <point x="305.2" y="-10.4" type="curve" smooth="yes"/>
      <point x="512.4" y="521.0" type="line"/>
      <point x="378.4" y="521.0" type="line"/>
      <point x="239.2" y="102.0" type="line"/>
      <point x="206.8" y="37.4" type="line"/>
      <point x="166.39999999999998" y="-67.4"/>
      <point x="133.2" y="-87.4"/>
      <point x="85.6" y="-87.4" type="curve"/>
      <point x="68.0" y="-87.4"/>
      <point x="53.4" y="-84.80000000000001"/>
      <point x="35.8" y="-79.2" type="curve"/>
    </contour>
    <contour>
      <point x="260.79999999999995" y="521.0" type="move" name="top"/>
    </contour>
  </outline>
</glyph>
<glyph name="z" format="1">
  <advance width="502.2"/>
  <unicode hex="007A"/>
  <outline>
    <contour>
      <point x="41.0" y="75.0" type="line"/>
      <point x="132.2" y="0.0" type="line"/>
      <point x="451.2" y="446.0" type="line"/>
      <point x="360.0" y="521.0" type="line"/>
    </contour>
    <contour>
      <point x="41.0" y="0.0" type="line"/>
      <point x="461.2" y="0.0" type="line"/>
      <point x="461.2" y="101.0" type="line"/>
      <point x="94.80000000000001" y="101.0" type="line"/>
      <point x="41.0" y="75.0" type="line"/>
    </contour>
    <contour>
      <point x="51.0" y="420.0" type="line"/>
      <point x="396.79999999999995" y="420.0" type="line"/>
      <point x="451.2" y="446.0" type="line"/>
      <point x="451.2" y="521.0" type="line"/>
      <point x="51.0" y="521.0" type="line"/>
    </contour>
    <contour>
      <point x="250.8" y="521.0" type="move" name="top"/>
    </contour>
  </outline>
</glyph>
<glyph name="exclamdown" format="1">
  <advance width="343.6"/>
  <unicode hex="00A1"/>
  <outline>
    <contour>
      <point x="101.6" y="-185.0" type="line"/>
      <point x="242.0" y="-185.0" type="line"/>
      <point x="242.0" y="0.0" type="line"/>
      <point x="220.0" y="281.0" type="line"/>
      <point x="123.60000000000001" y="281.0" type="line"/>
      <point x="101.6" y="0.0" type="line"/>
    </contour>
    <contour>
      <point x="91.0" y="452.20000000000005" type="curve" smooth="yes"/>
      <point x="91.0" y="406.0"/>
      <point x="124.0" y="371.79999999999995"/>
      <point x="171.8" y="371.79999999999995" type="curve" smooth="yes"/>
      <point x="218.8" y="371.79999999999995"/>
      <point x="252.6" y="406.0"/>
      <point x="252.6" y="452.20000000000005" type="curve" smooth="yes"/>
      <point x="252.6" y="497.4"/>
      <point x="218.8" y="532.2"/>
      <point x="171.8" y="532.2" type="curve" smooth="yes"/>
      <point x="124.0" y="532.2"/>
      <point x="91.0" y="497.4"/>
    </contour>
  </outline>
</glyph>
<glyph name="sterling" format="1">
  <advance width="600.0"/>
  <unicode hex="00A3"/>
  <outline>
    <contour>
      <point x="50.0" y="0.0" type="line"/>
      <point x="546.0" y="0.0" type="line"/>
      <point x="546.0" y="110.4" type="line"/>
      <point x="50.0" y="110.4" type="line"/>
    </contour>
    <contour>
      <point x="50.0" y="30.0" type="line"/>
      <point x="176.0" y="60.0"/>
      <point x="273.6" y="150.0"/>
      <point x="273.6" y="260.0" type="curve" smooth="yes"/>
      <point x="273.6" y="340.0"/>
      <point x="239.60000000000002" y="380.0"/>
      <point x="239.60000000000002" y="458.0" type="curve" smooth="yes"/>
      <point x="239.60000000000002" y="531.8"/>
      <point x="284.4" y="580.2"/>
      <point x="353.6" y="580.2" type="curve" smooth="yes"/>
      <point x="410.4" y="580.2"/>
      <point x="453.20000000000005" y="550.0"/>
      <point x="479.0" y="513.2" type="curve"/>
      <point x="565.0" y="602.8" type="line"/>
      <point x="516.8" y="661.2"/>
      <point x="430.0" y="701.2"/>
      <point x="347.20000000000005" y="701.2" type="curve" smooth="yes"/>
      <point x="212.4" y="701.2"/>
      <point x="109.0" y="618.0"/>
      <point x="109.0" y="468.0" type="curve" smooth="yes"/>
      <point x="109.0" y="380.0"/>
      <point x="146.0" y="344.0"/>
      <point x="146.0" y="260.0" type="curve" smooth="yes"/>
      <point x="146.0" y="200.0"/>
      <point x="112.0" y="142.0"/>
      <point x="50.0" y="114.0" type="curve"/>
    </contour>
    <contour>
      <point x="50.0" y="274.0" type="line"/>
      <point x="442.0" y="274.0" type="line"/>
      <point x="442.0" y="378.0" type="line"/>
      <point x="50.0" y="378.0" type="line"/>
    </contour>
  </outline>
</glyph>
<glyph name="yen" format="1">
  <advance width="600.0"/>
  <unicode hex="00A5"/>
  <outline>
    <contour>
      <point x="-9.2" y="690.0" type="line"/>
      <point x="243.79999999999998" y="276.0" type="line"/>
      <point x="315.0" y="276.0" type="line"/>
      <point x="319.0" y="383.4" type="line"/>
      <point x="144.8" y="690.0" type="line"/>
    </contour>
    <contour>
      <point x="82.80000000000001" y="137.2" type="line"/>
      <point x="517.2" y="137.2" type="line"/>
      <point x="517.2" y="227.60000000000002" type="line"/>
      <point x="82.80000000000001" y="227.60000000000002" type="line"/>
    </contour>
    <contour>
      <point x="82.80000000000001" y="291.2" type="line"/>
      <point x="517.2" y="291.2" type="line"/>
      <point x="517.2" y="381.6" type="line"/>
      <point x="82.80000000000001" y="381.6" type="line"/>
    </contour>
    <contour>
      <point x="232.8" y="0.0" type="line"/>
      <point x="367.20000000000005" y="0.0" type="line"/>
      <point x="367.20000000000005" y="314.0" type="line"/>
      <point x="232.8" y="314.0" type="line"/>
    </contour>
    <contour>
      <point x="285.0" y="383.4" type="line"/>
      <point x="293.0" y="276.0" type="line"/>
      <point x="356.2" y="276.0" type="line"/>
      <point x="609.2" y="690.0" type="line"/>
      <point x="459.2" y="690.0" type="line"/>
    </contour>
  </outline>
</glyph>
<glyph name="section" format="1">
  <advance width="620.0"/>
  <unicode hex="00A7"/>
  <outline>
    <contour>
      <point x="43.6" y="-116.80000000000001" type="line"/>
      <point x="105.80000000000001" y="-164.0"/>
      <point x="199.2" y="-196.6"/>
      <point x="285.4" y="-196.6" type="curve" smooth="yes"/>
      <point x="443.6" y="-196.6"/>
      <point x="535.0" y="-109.4"/>
      <point x="535.0" y="-10.2" type="curve" smooth="yes"/>
      <point x="535.0" y="82.6"/>
      <point x="464.4" y="141.0"/>
      <point x="308.8" y="187.8" type="curve" smooth="yes"/>
      <point x="189.6" y="224.0"/>
      <point x="164.2" y="254.60000000000002"/>
      <point x="164.2" y="294.0" type="curve" smooth="yes"/>
      <point x="164.2" y="332.2"/>
      <point x="204.8" y="367.8"/>
      <point x="282.2" y="373.8" type="curve"/>
      <point x="175.60000000000002" y="450.8" type="line"/>
      <point x="88.0" y="425.0"/>
      <point x="37.599999999999994" y="361.20000000000005"/>
      <point x="37.599999999999994" y="281.4" type="curve" smooth="yes"/>
      <point x="37.599999999999994" y="190.8"/>
      <point x="101.8" y="121.2"/>
      <point x="271.2" y="71.4" type="curve" smooth="yes"/>
      <point x="376.8" y="39.8"/>
      <point x="401.2" y="16.6"/>
      <point x="401.2" y="-16.0" type="curve" smooth="yes"/>
      <point x="401.2" y="-50.8"/>
      <point x="365.2" y="-81.80000000000001"/>
      <point x="296.0" y="-81.80000000000001" type="curve" smooth="yes"/>
      <point x="226.2" y="-81.80000000000001"/>
      <point x="161.2" y="-54.4"/>
      <point x="108.19999999999999" y="-11.8" type="curve"/>
    </contour>
    <contour>
      <point x="85.0" y="514.8" type="curve" smooth="yes"/>
      <point x="85.0" y="422.0"/>
      <point x="155.6" y="363.6"/>
      <point x="311.2" y="316.8" type="curve" smooth="yes"/>
      <point x="430.4" y="280.6"/>
      <point x="455.79999999999995" y="250.0"/>
      <point x="455.79999999999995" y="210.6" type="curve" smooth="yes"/>
      <point x="455.79999999999995" y="172.39999999999998"/>
      <point x="415.2" y="136.8"/>
      <point x="337.79999999999995" y="130.8" type="curve"/>
      <point x="444.4" y="53.8" type="line"/>
      <point x="532.0" y="79.6"/>
      <point x="582.4" y="143.4"/>
      <point x="582.4" y="223.2" type="curve" smooth="yes"/>
      <point x="582.4" y="313.8"/>
      <point x="518.2" y="383.4"/>
      <point x="348.8" y="433.20000000000005" type="curve" smooth="yes"/>
      <point x="243.2" y="464.79999999999995"/>
      <point x="218.8" y="488.0"/>
      <point x="218.8" y="520.6" type="curve" smooth="yes"/>
      <point x="218.8" y="555.4"/>
      <point x="254.8" y="586.4"/>
      <point x="324.0" y="586.4" type="curve" smooth="yes"/>
      <point x="393.8" y="586.4"/>
      <point x="458.79999999999995" y="559.0"/>
      <point x="511.79999999999995" y="516.4" type="curve"/>
      <point x="576.4" y="621.4" type="line"/>
      <point x="514.2" y="668.5999999999999"/>
      <point x="420.8" y="701.2"/>
      <point x="334.6" y="701.2" type="curve" smooth="yes"/>
      <point x="176.4" y="701.2"/>
      <point x="85.0" y="614.0"/>
    </contour>
  </outline>
</glyph>
<glyph name="dieresis" format="1">
  <advance width="600.0"/>
  <unicode hex="00A8"/>
  <outline>
    <contour>
      <point x="129.39999999999998" y="670.8" type="curve" smooth="yes"/>
      <point x="129.39999999999998" y="631.4000000000001"/>
      <point x="157.2" y="603.0"/>
      <point x="198.4" y="603.0" type="curve" smooth="yes"/>
      <point x="240.39999999999998" y="603.0"/>
      <point x="267.4" y="631.4000000000001"/>
      <point x="267.4" y="670.8" type="curve" smooth="yes"/>
      <point x="267.4" y="710.6"/>
      <point x="240.39999999999998" y="739.0"/>
      <point x="198.4" y="739.0" type="curve" smooth="yes"/>
      <point x="157.2" y="739.0"/>
      <point x="129.39999999999998" y="710.6"/>
    </contour>
    <contour>
      <point x="332.6" y="670.8" type="curve" smooth="yes"/>
      <point x="332.6" y="631.4000000000001"/>
      <point x="360.4" y="603.0"/>
      <point x="401.6" y="603.0" type="curve" smooth="yes"/>
      <point x="443.6" y="603.0"/>
      <point x="470.59999999999997" y="631.4000000000001"/>
      <point x="470.59999999999997" y="670.8" type="curve" smooth="yes"/>
      <point x="470.59999999999997" y="710.6"/>
      <point x="443.6" y="739.0"/>
      <point x="401.6" y="739.0" type="curve" smooth="yes"/>
      <point x="360.4" y="739.0"/>
      <point x="332.6" y="710.6"/>
    </contour>
    <contour>
      <point x="300.0" y="521.0" type="move" name="_top"/>
    </contour>
  </outline>
</glyph>
<glyph name="copyright" format="1">
  <advance width="810.0"/>
  <unicode hex="00A9"/>
  <outline>
    <contour>
      <point x="405.0" y="-10.0" type="curve" smooth="yes"/>
      <point x="605.0" y="-10.0"/>
      <point x="760.0" y="145.0"/>
      <point x="760.0" y="345.0" type="curve" smooth="yes"/>
      <point x="760.0" y="545.0"/>
      <point x="605.0" y="700.0"/>
      <point x="405.0" y="700.0" type="curve" smooth="yes"/>
      <point x="205.0" y="700.0"/>
      <point x="50.0" y="545.0"/>
      <point x="50.0" y="345.0" type="curve" smooth="yes"/>
      <point x="50.0" y="145.0"/>
      <point x="205.0" y="-10.0"/>
    </contour>
    <contour>
      <point x="405.0" y="60.0" type="curve" smooth="yes"/>
      <point x="245.0" y="60.0"/>
      <point x="122.0" y="185.0"/>
      <point x="122.0" y="345.0" type="curve" smooth="yes"/>
      <point x="122.0" y="505.0"/>
      <point x="245.0" y="630.0"/>
      <point x="405.0" y="630.0" type="curve" smooth="yes"/>
      <point x="565.0" y="630.0"/>
      <point x="688.0" y="505.0"/>
      <point x="688.0" y="345.0" type="curve" smooth="yes"/>
      <point x="688.0" y="185.0"/>
      <point x="565.0" y="60.0"/>
    </contour>
    <contour>
      <point x="218.4" y="345.0" type="curve" smooth="yes"/>
      <point x="218.4" y="210.0"/>
      <point x="306.8" y="135.0"/>
      <point x="408.0" y="135.0" type="curve" smooth="yes"/>
      <point x="463.0" y="135.0"/>
      <point x="507.0" y="155.0"/>
      <point x="543.0" y="191.0" type="curve"/>
      <point x="482.8" y="260.2" type="line"/>
      <point x="464.4" y="239.8"/>
      <point x="440.0" y="229.0"/>
      <point x="411.4" y="229.0" type="curve" smooth="yes"/>
      <point x="359.79999999999995" y="229.0"/>
      <point x="320.0" y="272.6"/>
      <point x="320.0" y="345.0" type="curve" smooth="yes"/>
      <point x="320.0" y="417.4"/>
      <point x="359.79999999999995" y="461.0"/>
      <point x="411.4" y="461.0" type="curve" smooth="yes"/>
      <point x="436.6" y="461.0"/>
      <point x="459.6" y="451.8"/>
      <point x="479.0" y="431.4" type="curve"/>
      <point x="538.0" y="500.0" type="line"/>
      <point x="502.0" y="535.0"/>
      <point x="459.0" y="555.0"/>
      <point x="408.0" y="555.0" type="curve" smooth="yes"/>
      <point x="306.8" y="555.0"/>
      <point x="218.4" y="480.0"/>
    </contour>
  </outline>
</glyph>
<glyph name="ordfeminine" format="1">
  <advance width="440.0"/>
  <unicode hex="00AA"/>
  <outline>
    <contour>
      <point x="45.6" y="394.0" type="curve" smooth="yes"/>
      <point x="45.6" y="322.4"/>
      <point x="99.80000000000001" y="278.79999999999995"/>
      <point x="163.0" y="278.79999999999995" type="curve" smooth="yes"/>
      <point x="221.0" y="278.79999999999995"/>
      <point x="272.4" y="310.4"/>
      <point x="303.0" y="354.20000000000005" type="curve"/>
      <point x="303.0" y="423.20000000000005" type="line"/>
      <point x="270.4" y="383.6"/>
      <point x="233.4" y="359.0"/>
      <point x="192.60000000000002" y="359.0" type="curve" smooth="yes"/>
      <point x="163.2" y="359.0"/>
      <point x="143.6" y="375.20000000000005"/>
      <point x="143.6" y="403.0" type="curve" smooth="yes"/>
      <point x="143.6" y="430.4"/>
      <point x="168.2" y="456.79999999999995"/>
      <point x="251.0" y="464.4" type="curve" smooth="yes"/>
      <point x="297.0" y="468.79999999999995" type="line"/>
      <point x="297.0" y="534.0" type="line"/>
      <point x="247.4" y="532.0" type="line" smooth="yes"/>
      <point x="96.8" y="526.0"/>
      <point x="45.6" y="463.6"/>
    </contour>
    <contour>
      <point x="52.2" y="654.8" type="curve"/>
      <point x="87.0" y="575.5999999999999" type="line"/>
      <point x="119.80000000000001" y="594.4"/>
      <point x="159.2" y="611.6"/>
      <point x="198.2" y="611.6" type="curve" smooth="yes"/>
      <point x="248.0" y="611.6"/>
      <point x="276.0" y="586.2"/>
      <point x="276.0" y="532.0" type="curve" smooth="yes"/>
      <point x="276.0" y="360.4" type="line"/>
      <point x="293.0" y="290.0" type="line"/>
      <point x="389.0" y="290.0" type="line"/>
      <point x="382.0" y="325.0" type="line" smooth="yes"/>
      <point x="378.0" y="347.0"/>
      <point x="377.0" y="364.0"/>
      <point x="377.0" y="386.0" type="curve" smooth="yes"/>
      <point x="377.0" y="541.6" type="line" smooth="yes"/>
      <point x="377.0" y="647.2"/>
      <point x="306.2" y="701.2"/>
      <point x="207.0" y="701.2" type="curve" smooth="yes"/>
      <point x="151.4" y="701.2"/>
      <point x="91.4" y="678.4000000000001"/>
    </contour>
  </outline>
</glyph>
<glyph name="guillemetleft" format="1">
  <advance width="527.5999999999999"/>
  <unicode hex="00AB"/>
  <outline>
    <contour>
      <point x="34.0" y="242.20000000000002" type="line"/>
      <point x="140.2" y="86.0" type="line"/>
      <point x="277.0" y="86.0" type="line"/>
      <point x="130.0" y="296.0" type="line"/>
      <point x="34.0" y="302.8" type="line"/>
    </contour>
    <contour>
      <point x="34.0" y="244.2" type="line"/>
      <point x="130.0" y="251.0" type="line"/>
      <point x="277.0" y="461.0" type="line"/>
      <point x="140.2" y="461.0" type="line"/>
      <point x="34.0" y="304.8" type="line"/>
    </contour>
    <contour>
      <point x="270.6" y="242.20000000000002" type="line"/>
      <point x="376.8" y="86.0" type="line"/>
      <point x="513.5999999999999" y="86.0" type="line"/>
      <point x="366.6" y="296.0" type="line"/>
      <point x="270.6" y="302.8" type="line"/>
    </contour>
    <contour>
      <point x="270.6" y="244.2" type="line"/>
      <point x="366.6" y="251.0" type="line"/>
      <point x="513.5999999999999" y="461.0" type="line"/>
      <point x="376.8" y="461.0" type="line"/>
      <point x="270.6" y="304.8" type="line"/>
    </contour>
  </outline>
</glyph>
<glyph name="logicalnot" format="1">
  <advance width="600.0"/>
  <unicode hex="00AC"/>
  <outline>
    <contour>
      <point x="66.4" y="233.79999999999998" type="line"/>
      <point x="533.6" y="233.79999999999998" type="line"/>
      <point x="533.6" y="346.2" type="line"/>
      <point x="66.4" y="346.2" type="line"/>
    </contour>
    <contour>
      <point x="416.79999999999995" y="59.0" type="line"/>
      <point x="533.6" y="59.0" type="line"/>
      <point x="533.6" y="346.2" type="line"/>
      <point x="416.79999999999995" y="346.2" type="line"/>
    </contour>
  </outline>
</glyph>
<glyph name="degree" format="1">
  <advance width="396.0"/>
  <unicode hex="00B0"/>
  <outline>
    <contour>
      <point x="38.0" y="543.2" type="curve" smooth="yes"/>
      <point x="38.0" y="454.0"/>
      <point x="107.80000000000001" y="385.2"/>
      <point x="198.0" y="385.2" type="curve" smooth="yes"/>
      <point x="288.20000000000005" y="385.2"/>
      <point x="358.0" y="454.0"/>
      <point x="358.0" y="543.2" type="curve" smooth="yes"/>
      <point x="358.0" y="631.8"/>
      <point x="288.20000000000005" y="701.2"/>
      <point x="198.0" y="701.2" type="curve" smooth="yes"/>
      <point x="107.80000000000001" y="701.2"/>
      <point x="38.0" y="631.8"/>
    </contour>
    <contour>
      <point x="126.80000000000001" y="543.2" type="curve" smooth="yes"/>
      <point x="126.80000000000001" y="586.2"/>
      <point x="156.8" y="618.4000000000001"/>
      <point x="198.0" y="618.4000000000001" type="curve" smooth="yes"/>
      <point x="239.20000000000002" y="618.4000000000001"/>
      <point x="269.20000000000005" y="586.2"/>
      <point x="269.20000000000005" y="543.2" type="curve" smooth="yes"/>
      <point x="269.20000000000005" y="500.2"/>
      <point x="239.20000000000002" y="468.0"/>
      <point x="198.0" y="468.0" type="curve" smooth="yes"/>
      <point x="156.8" y="468.0"/>
      <point x="126.80000000000001" y="500.2"/>
    </contour>
  </outline>
</glyph>
<glyph name="plusminus" format="1">
  <advance width="600.0"/>
  <unicode hex="00B1"/>
  <outline>
    <contour>
      <point x="66.4" y="59.0" type="line"/>
      <point x="533.6" y="59.0" type="line"/>
      <point x="533.6" y="169.39999999999998" type="line"/>
      <point x="66.4" y="169.39999999999998" type="line"/>
    </contour>
    <contour>
      <point x="66.4" y="275.2" type="line"/>
      <point x="533.6" y="275.2" type="line"/>
      <point x="533.6" y="387.6" type="line"/>
      <point x="66.4" y="387.6" type="line"/>
    </contour>
    <contour>
      <point x="241.2" y="59.0" type="line"/>
      <point x="358.8" y="59.0" type="line"/>
      <point x="358.8" y="533.0" type="line"/>
      <point x="241.2" y="533.0" type="line"/>
    </contour>
  </outline>
</glyph>
<glyph name="twosuperior" format="1">
  <advance width="440.0"/>
  <unicode hex="00B2"/>
  <outline>
    <contour>
      <point x="69.4" y="290.0" type="line"/>
      <point x="363.0" y="290.0" type="line"/>
      <point x="363.0" y="371.20000000000005" type="line"/>
      <point x="124.60000000000001" y="371.20000000000005" type="line"/>
      <point x="69.4" y="354.4" type="line"/>
    </contour>
    <contour>
      <point x="69.4" y="354.4" type="line"/>
      <point x="118.4" y="290.0" type="line"/>
      <point x="258.6" y="422.4" type="line" smooth="yes"/>
      <point x="320.0" y="480.0"/>
      <point x="353.0" y="526.0"/>
      <point x="353.0" y="576.8" type="curve" smooth="yes"/>
      <point x="353.0" y="650.0"/>
      <point x="292.2" y="701.2"/>
      <point x="210.6" y="701.2" type="curve" smooth="yes"/>
      <point x="151.8" y="701.2"/>
      <point x="103.6" y="675.4000000000001"/>
      <point x="59.400000000000006" y="632.2" type="curve"/>
      <point x="113.8" y="566.8" type="line"/>
      <point x="138.2" y="594.2"/>
      <point x="167.4" y="615.4"/>
      <point x="200.2" y="615.4" type="curve" smooth="yes"/>
      <point x="232.60000000000002" y="615.4"/>
      <point x="255.0" y="596.0"/>
      <point x="255.0" y="567.8" type="curve" smooth="yes"/>
      <point x="255.0" y="540.0"/>
      <point x="233.8" y="516.4"/>
      <point x="195.0" y="478.4" type="curve" smooth="yes"/>
    </contour>
  </outline>
</glyph>
<glyph name="acute" format="1">
  <advance width="600.0"/>
  <unicode hex="00B4"/>
  <outline>
    <contour>
      <point x="242.4" y="596.0" type="line"/>
      <point x="345.4" y="596.0" type="line"/>
      <point x="472.79999999999995" y="746.0" type="line"/>
      <point x="325.79999999999995" y="746.0" type="line"/>
    </contour>
    <contour>
      <point x="300.0" y="521.0" type="move" name="_top"/>
    </contour>
  </outline>
</glyph>
<glyph name="onesuperior" format="1">
  <advance width="440.0"/>
  <unicode hex="00B9"/>
  <outline>
    <contour>
      <point x="80.80000000000001" y="290.0" type="line"/>
      <point x="380.0" y="290.0" type="line"/>
      <point x="380.0" y="367.4" type="line"/>
      <point x="80.80000000000001" y="367.4" type="line"/>
    </contour>
    <contour>
      <point x="65.4" y="626.0" type="line"/>
      <point x="97.6" y="554.0" type="line"/>
      <point x="243.8" y="619.8" type="line"/>
      <point x="208.0" y="690.0" type="line"/>
    </contour>
    <contour>
      <point x="182.0" y="290.0" type="line"/>
      <point x="280.0" y="290.0" type="line"/>
      <point x="280.0" y="690.0" type="line"/>
      <point x="208.0" y="690.0" type="line"/>
      <point x="182.0" y="637.0" type="line"/>
    </contour>
  </outline>
</glyph>
<glyph name="ordmasculine" format="1">
  <advance width="480.0"/>
  <unicode hex="00BA"/>
  <outline>
    <contour>
      <point x="51.0" y="490.0" type="curve" smooth="yes"/>
      <point x="51.0" y="349.20000000000005"/>
      <point x="135.60000000000002" y="278.79999999999995"/>
      <point x="240.0" y="278.79999999999995" type="curve" smooth="yes"/>
      <point x="344.4" y="278.79999999999995"/>
      <point x="429.0" y="349.20000000000005"/>
      <point x="429.0" y="490.0" type="curve" smooth="yes"/>
      <point x="429.0" y="630.8"/>
      <point x="344.4" y="701.2"/>
      <point x="240.0" y="701.2" type="curve" smooth="yes"/>
      <point x="135.60000000000002" y="701.2"/>
      <point x="51.0" y="630.8"/>
    </contour>
    <contour>
      <point x="152.0" y="490.0" type="curve" smooth="yes"/>
      <point x="152.0" y="574.8"/>
      <point x="190.60000000000002" y="614.0"/>
      <point x="240.0" y="614.0" type="curve" smooth="yes"/>
      <point x="289.4" y="614.0"/>
      <point x="328.0" y="574.8"/>
      <point x="328.0" y="490.0" type="curve" smooth="yes"/>
      <point x="328.0" y="405.2"/>
      <point x="289.4" y="366.0"/>
      <point x="240.0" y="366.0" type="curve" smooth="yes"/>
      <point x="190.60000000000002" y="366.0"/>
      <point x="152.0" y="405.2"/>
    </contour>
  </outline>
</glyph>
<glyph name="guillemetright" format="1">
  <advance width="527.5999999999999"/>
  <unicode hex="00BB"/>
  <outline>
    <contour>
      <point x="14.0" y="86.0" type="line"/>
      <point x="150.8" y="86.0" type="line"/>
      <point x="257.0" y="242.20000000000002" type="line"/>
      <point x="257.0" y="302.8" type="line"/>
      <point x="161.0" y="296.0" type="line"/>
    </contour>
    <contour>
      <point x="14.0" y="461.0" type="line"/>
      <point x="161.0" y="251.0" type="line"/>
      <point x="257.0" y="244.2" type="line"/>
      <point x="257.0" y="304.8" type="line"/>
      <point x="150.8" y="461.0" type="line"/>
    </contour>
    <contour>
      <point x="250.6" y="86.0" type="line"/>
      <point x="387.4" y="86.0" type="line"/>
      <point x="493.59999999999997" y="242.20000000000002" type="line"/>
      <point x="493.59999999999997" y="302.8" type="line"/>
      <point x="397.6" y="296.0" type="line"/>
    </contour>
    <contour>
      <point x="250.6" y="461.0" type="line"/>
      <point x="397.6" y="251.0" type="line"/>
      <point x="493.59999999999997" y="244.2" type="line"/>
      <point x="493.59999999999997" y="304.8" type="line"/>
      <point x="387.4" y="461.0" type="line"/>
    </contour>
  </outline>
</glyph>
<glyph name="questiondown" format="1">
  <advance width="514.0"/>
  <unicode hex="00BF"/>
  <outline>
    <contour>
      <point x="57.0" y="-6.8" type="curve" smooth="yes"/>
      <point x="57.0" y="-120.4"/>
      <point x="146.8" y="-196.2"/>
      <point x="268.6" y="-196.2" type="curve" smooth="yes"/>
      <point x="360.8" y="-196.2"/>
      <point x="440.2" y="-152.2"/>
      <point x="498.0" y="-87.2" type="curve"/>
      <point x="420.0" y="5.799999999999999" type="line"/>
      <point x="377.6" y="-46.6"/>
      <point x="337.20000000000005" y="-71.6"/>
      <point x="281.79999999999995" y="-71.6" type="curve" smooth="yes"/>
      <point x="228.2" y="-71.6"/>
      <point x="195.0" y="-38.0"/>
      <point x="195.0" y="2.8" type="curve" smooth="yes"/>
      <point x="195.0" y="35.8"/>
      <point x="216.0" y="65.80000000000001"/>
      <point x="275.6" y="107.0" type="curve" smooth="yes"/>
      <point x="312.6" y="132.4"/>
      <point x="331.6" y="165.6"/>
      <point x="327.2" y="215.8" type="curve" smooth="yes"/>
      <point x="320.6" y="290.0" type="line"/>
      <point x="217.6" y="290.0" type="line"/>
      <point x="215.2" y="237.79999999999998" type="line" smooth="yes"/>
      <point x="213.8" y="208.8"/>
      <point x="205.0" y="192.2"/>
      <point x="179.2" y="176.39999999999998" type="curve" smooth="yes"/>
      <point x="91.0" y="118.2"/>
      <point x="57.0" y="63.599999999999994"/>
    </contour>
    <contour>
      <point x="187.8" y="452.20000000000005" type="curve" smooth="yes"/>
      <point x="187.8" y="406.0"/>
      <point x="220.8" y="371.79999999999995"/>
      <point x="268.6" y="371.79999999999995" type="curve" smooth="yes"/>
      <point x="315.6" y="371.79999999999995"/>
      <point x="349.4" y="406.0"/>
      <point x="349.4" y="452.20000000000005" type="curve" smooth="yes"/>
      <point x="349.4" y="497.4"/>
      <point x="315.6" y="532.2"/>
      <point x="268.6" y="532.2" type="curve" smooth="yes"/>
      <point x="220.8" y="532.2"/>
      <point x="187.8" y="497.4"/>
    </contour>
  </outline>
</glyph>
<glyph name="multiply" format="1">
  <advance width="600.0"/>
  <unicode hex="00D7"/>
  <outline>
    <contour>
      <point x="71.4" y="436.0" type="line"/>
      <point x="446.40000000000003" y="61.0" type="line"/>
      <point x="528.6" y="143.2" type="line"/>
      <point x="153.60000000000002" y="518.2" type="line"/>
    </contour>
    <contour>
      <point x="71.4" y="140.8" type="line"/>
      <point x="151.2" y="61.0" type="line"/>
      <point x="528.6" y="438.4" type="line"/>
      <point x="448.8" y="518.2" type="line"/>
    </contour>
  </outline>
</glyph>
<glyph name="Oslash" format="1">
  <advance width="736.8"/>
  <unicode hex="00D8"/>
  <outline>
    <contour>
      <point x="51.0" y="345.0" type="curve" smooth="yes"/>
      <point x="51.0" y="118.0"/>
      <point x="194.0" y="-11.2"/>
      <point x="368.4" y="-11.2" type="curve" smooth="yes"/>
      <point x="542.8" y="-11.2"/>
      <point x="685.8" y="118.0"/>
      <point x="685.8" y="345.0" type="curve" smooth="yes"/>
      <point x="685.8" y="572.0"/>
      <point x="542.8" y="701.2"/>
      <point x="368.4" y="701.2" type="curve" smooth="yes"/>
      <point x="194.0" y="701.2"/>
      <point x="51.0" y="572.0"/>
    </contour>
    <contour>
      <point x="186.2" y="345.0" type="curve" smooth="yes"/>
      <point x="186.2" y="505.0"/>
      <point x="263.6" y="583.2"/>
      <point x="368.4" y="583.2" type="curve" smooth="yes"/>
      <point x="473.20000000000005" y="583.2"/>
      <point x="550.6" y="505.0"/>
      <point x="550.6" y="345.0" type="curve" smooth="yes"/>
      <point x="550.6" y="185.0"/>
      <point x="473.20000000000005" y="106.8"/>
      <point x="368.4" y="106.8" type="curve" smooth="yes"/>
      <point x="263.6" y="106.8"/>
      <point x="186.2" y="185.0"/>
    </contour>
    <contour>
      <point x="31.0" y="58.400000000000006" type="line"/>
      <point x="104.4" y="-11.2" type="line"/>
      <point x="705.8" y="631.6" type="line"/>
      <point x="632.4" y="701.2" type="line"/>
    </contour>
    <contour>
      <point x="368.4" y="690.0" type="move" name="top"/>
    </contour>
  </outline>
</glyph>
<glyph name="germandbls" format="1">
  <advance width="609.8"/>
  <unicode hex="00DF"/>
  <outline>
    <contour>
      <point x="81.0" y="0.0" type="line"/>
      <point x="207.8" y="0.0" type="line"/>
      <point x="207.8" y="513.6" type="line" smooth="yes"/>
      <point x="207.8" y="586.8"/>
      <point x="243.4" y="621.6"/>
      <point x="293.0" y="621.6" type="curve" smooth="yes"/>
      <point x="342.6" y="621.6"/>
      <point x="374.4" y="595.2"/>
      <point x="374.4" y="548.0" type="curve" smooth="yes"/>
      <point x="374.4" y="497.20000000000005"/>
      <point x="336.4" y="455.6"/>
      <point x="268.0" y="400.0" type="curve"/>
      <point x="268.0" y="298.0" type="line"/>
      <point x="373.4" y="239.2" type="line" smooth="yes"/>
      <point x="426.0" y="209.6"/>
      <point x="445.20000000000005" y="183.60000000000002"/>
      <point x="445.20000000000005" y="151.2" type="curve" smooth="yes"/>
      <point x="445.20000000000005" y="118.4"/>
      <point x="422.8" y="91.6"/>
      <point x="381.8" y="91.6" type="curve" smooth="yes"/>
      <point x="345.4" y="91.6"/>
      <point x="316.0" y="106.4"/>
      <point x="289.0" y="124.0" type="curve"/>
      <point x="248.4" y="30.0" type="line"/>
      <point x="277.0" y="11.600000000000001"/>
      <point x="329.20000000000005" y="-11.2"/>
      <point x="389.20000000000005" y="-11.2" type="curve" smooth="yes"/>
      <point x="496.0" y="-11.2"/>
      <point x="572.8" y="57.6"/>
      <point x="572.8" y="152.0" type="curve" smooth="yes"/>
      <point x="572.8" y="221.2"/>
      <point x="542.8" y="273.2"/>
      <point x="449.0" y="327.0" type="curve" smooth="yes"/>
      <point x="387.6" y="362.4" type="line"/>
      <point x="438.6" y="408.0"/>
      <point x="498.20000000000005" y="467.20000000000005"/>
      <point x="498.20000000000005" y="552.0" type="curve" smooth="yes"/>
      <point x="498.20000000000005" y="664.0"/>
      <point x="416.0" y="731.2"/>
      <point x="293.0" y="731.2" type="curve" smooth="yes"/>
      <point x="164.0" y="731.2"/>
      <point x="81.0" y="659.4000000000001"/>
      <point x="81.0" y="515.6" type="curve" smooth="yes"/>
    </contour>
  </outline>
</glyph>
<glyph name="eth" format="1">
  <advance width="578.0022590725222"/>
  <unicode hex="00F0"/>
  <outline>
    <contour>
      <point x="49.0" y="235.0" type="curve" smooth="yes"/>
      <point x="49.0" y="75.0"/>
      <point x="157.8" y="-11.2"/>
      <point x="286.0" y="-11.2" type="curve" smooth="yes"/>
      <point x="416.0" y="-11.2"/>
      <point x="523.6" y="85.0"/>
      <point x="524.0" y="272.0" type="curve" smooth="yes"/>
      <point x="524.4" y="460.0"/>
      <point x="398.4" y="638.4"/>
      <point x="280.0" y="720.0" type="curve"/>
      <point x="124.0" y="720.0" type="line"/>
      <point x="280.8" y="602.4"/>
      <point x="397.20000000000005" y="440.0"/>
      <point x="397.20000000000005" y="272.0" type="curve" smooth="yes"/>
      <point x="397.20000000000005" y="154.2"/>
      <point x="349.4" y="94.4"/>
      <point x="286.0" y="94.4" type="curve" smooth="yes"/>
      <point x="223.79999999999998" y="94.4"/>
      <point x="173.6" y="144.2"/>
      <point x="173.6" y="235.0" type="curve" smooth="yes"/>
      <point x="173.6" y="325.8"/>
      <point x="223.79999999999998" y="375.6"/>
      <point x="286.0" y="375.6" type="curve" smooth="yes"/>
      <point x="338.8" y="375.6"/>
      <point x="385.20000000000005" y="344.79999999999995"/>
      <point x="412.0" y="292.0" type="curve"/>
      <point x="424.0" y="380.0" type="line"/>
      <point x="394.0" y="430.0"/>
      <point x="344.8" y="481.2"/>
      <point x="262.4" y="481.2" type="curve" smooth="yes"/>
      <point x="157.8" y="481.2"/>
      <point x="49.0" y="395.0"/>
    </contour>
    <contour>
      <point x="179.2" y="529.0" type="line"/>
      <point x="459.2" y="661.2" type="line"/>
      <point x="426.0" y="731.2" type="line"/>
      <point x="146.0" y="599.0" type="line"/>
    </contour>
  </outline>
</glyph>
<glyph name="oslash" format="1">
  <advance width="584.0"/>
  <unicode hex="00F8"/>
  <outline>
    <contour>
      <point x="44.8" y="260.0" type="curve" smooth="yes"/>
      <point x="44.8" y="89.4"/>
      <point x="147.8" y="-11.2"/>
      <point x="292.0" y="-11.2" type="curve" smooth="yes"/>
      <point x="436.2" y="-11.2"/>
      <point x="539.2" y="89.4"/>
      <point x="539.2" y="260.0" type="curve" smooth="yes"/>
      <point x="539.2" y="430.59999999999997"/>
      <point x="436.2" y="532.2"/>
      <point x="292.0" y="532.2" type="curve" smooth="yes"/>
      <point x="147.8" y="532.2"/>
      <point x="44.8" y="430.59999999999997"/>
    </contour>
    <contour>
      <point x="170.4" y="260.0" type="curve" smooth="yes"/>
      <point x="170.4" y="374.4"/>
      <point x="217.0" y="430.0"/>
      <point x="292.0" y="430.0" type="curve" smooth="yes"/>
      <point x="367.0" y="430.0"/>
      <point x="413.6" y="374.4"/>
      <point x="413.6" y="260.0" type="curve" smooth="yes"/>
      <point x="413.6" y="145.60000000000002"/>
      <point x="367.0" y="90.4"/>
      <point x="292.0" y="90.4" type="curve" smooth="yes"/>
      <point x="217.0" y="90.4"/>
      <point x="170.4" y="145.60000000000002"/>
    </contour>
    <contour>
      <point x="35.0" y="52.400000000000006" type="line"/>
      <point x="102.4" y="-11.2" type="line"/>
      <point x="549.0" y="468.6" type="line"/>
      <point x="481.6" y="532.2" type="line"/>
    </contour>
    <contour>
      <point x="292.0" y="521.0" type="move" name="top"/>
    </contour>
  </outline>
</glyph>
<glyph name="dcroat" format="1">
  <advance width="605.4"/>
  <unicode hex="0111"/>
  <outline>
    <contour>
      <point x="44.8" y="253.60000000000002" type="curve" smooth="yes"/>
      <point x="44.8" y="90.27391304347826"/>
      <point x="134.2" y="-11.2"/>
      <point x="239.8" y="-11.2" type="curve" smooth="yes"/>
      <point x="308.2" y="-11.2"/>
      <point x="366.0" y="27.8"/>
      <point x="407.6" y="83.8" type="curve"/>
      <point x="407.6" y="172.0" type="line"/>
      <point x="371.4" y="129.8"/>
      <point x="325.0" y="104.39999999999999"/>
      <point x="279.8" y="104.39999999999999" type="curve" smooth="yes"/>
      <point x="217.0" y="104.39999999999999"/>
      <point x="172.4" y="156.85405405405407"/>
      <point x="172.4" y="259.6" type="curve" smooth="yes"/>
      <point x="172.4" y="357.6"/>
      <point x="221.0" y="418.6"/>
      <point x="292.6" y="418.6" type="curve"/>
      <point x="348.4" y="418.6"/>
      <point x="392.6" y="375.8"/>
      <point x="392.6" y="280.0" type="curve"/>
      <point x="439.8" y="287.0" type="line"/>
      <point x="439.8" y="439.4"/>
      <point x="359.4" y="520.2"/>
      <point x="262.20000000000005" y="520.2" type="curve"/>
      <point x="135.4" y="520.2"/>
      <point x="44.8" y="424.20000000000005"/>
    </contour>
    <contour>
      <point x="412.4" y="0.0" type="line"/>
      <point x="534.4" y="0.0" type="line"/>
      <point x="526.4" y="47.0" type="line" smooth="yes"/>
      <point x="521.4" y="76.0"/>
      <point x="519.4" y="95.8"/>
      <point x="519.4" y="123.80000000000001" type="curve" smooth="yes"/>
      <point x="519.4" y="735.0" type="line"/>
      <point x="392.6" y="715.0" type="line"/>
      <point x="392.6" y="132.0" type="line"/>
      <point x="393.6" y="95.0" type="line"/>
    </contour>
    <contour>
      <point x="260.6" y="573.0" type="line"/>
      <point x="585.4" y="573.0" type="line"/>
      <point x="585.4" y="660.0" type="line"/>
      <point x="260.6" y="660.0" type="line"/>
    </contour>
  </outline>
</glyph>
<glyph name="eogonek" format="1">
  <advance width="559.6"/>
  <unicode hex="0119"/>
  <outline>
    <contour>
      <point x="44.8" y="252.0" type="curve" smooth="yes"/>
      <point x="44.8" y="87.2"/>
      <point x="148.8" y="-11.2"/>
      <point x="312.6" y="-11.2" type="curve" smooth="yes"/>
      <point x="379.6" y="-11.2"/>
      <point x="438.2" y="6.6000000000000005"/>
      <point x="485.4" y="34.0" type="curve"/>
      <point x="443.6" y="130.4" type="line"/>
      <point x="410.8" y="110.0"/>
      <point x="367.20000000000005" y="95.6"/>
      <point x="324.0" y="95.6" type="curve" smooth="yes"/>
      <point x="234.0" y="95.6"/>
      <point x="170.0" y="147.2"/>
      <point x="170.0" y="258.0" type="curve" smooth="yes"/>
      <point x="170.0" y="376.0"/>
      <point x="219.60000000000002" y="429.6"/>
      <point x="288.8" y="429.6" type="curve" smooth="yes"/>
      <point x="351.4" y="429.6"/>
      <point x="394.20000000000005" y="383.0"/>
      <point x="394.20000000000005" y="270.0" type="curve"/>
      <point x="420.0" y="309.4" type="line"/>
      <point x="140.6" y="309.4" type="line"/>
      <point x="140.6" y="222.79999999999998" type="line"/>
      <point x="512.8" y="222.79999999999998" type="line"/>
      <point x="514.4" y="234.8"/>
      <point x="516.6" y="252.6"/>
      <point x="516.6" y="271.20000000000005" type="curve" smooth="yes"/>
      <point x="516.6" y="437.8"/>
      <point x="424.0" y="532.2"/>
      <point x="291.0" y="532.2" type="curve" smooth="yes"/>
      <point x="149.2" y="532.2"/>
      <point x="44.8" y="427.2"/>
    </contour>
    <contour>
      <point x="297.8" y="-110.0" type="curve" smooth="yes"/>
      <point x="297.8" y="-163.8"/>
      <point x="338.6" y="-196.2"/>
      <point x="396.20000000000005" y="-196.2" type="curve" smooth="yes"/>
      <point x="430.8" y="-196.2"/>
      <point x="458.4" y="-185.0"/>
      <point x="483.0" y="-170.0" type="curve"/>
      <point x="457.0" y="-108.2" type="line"/>
      <point x="441.79999999999995" y="-117.39999999999999"/>
      <point x="427.0" y="-125.80000000000001"/>
      <point x="407.4" y="-125.80000000000001" type="curve" smooth="yes"/>
      <point x="387.79999999999995" y="-125.80000000000001"/>
      <point x="375.20000000000005" y="-112.6"/>
      <point x="375.20000000000005" y="-94.0" type="curve" smooth="yes"/>
      <point x="375.20000000000005" y="-61.6"/>
      <point x="407.0" y="-30.0"/>
      <point x="485.4" y="34.0" type="curve"/>
      <point x="365.0" y="0.0" type="line"/>
      <point x="325.0" y="-26.8"/>
      <point x="297.8" y="-64.6"/>
    </contour>
  </outline>
</glyph>
<glyph name="hbar" format="1">
  <advance width="627.0"/>
  <unicode hex="0127"/>
  <outline>
    <contour>
      <point x="86.0" y="0.0" type="line"/>
      <point x="212.8" y="0.0" type="line"/>
      <point x="212.8" y="735.0" type="line"/>
      <point x="86.0" y="715.0" type="line"/>
    </contour>
    <contour>
      <point x="197.8" y="340.0" type="line"/>
      <point x="234.0" y="380.6"/>
      <point x="281.2" y="402.6"/>
      <point x="326.4" y="402.6" type="curve"/>
      <point x="383.2" y="402.6"/>
      <point x="424.2" y="368.20000000000005"/>
      <point x="424.2" y="291.4" type="curve" smooth="yes"/>
      <point x="424.2" y="0.0" type="line"/>
      <point x="551.0" y="0.0" type="line"/>
      <point x="551.0" y="310.0" type="line" smooth="yes"/>
      <point x="551.0" y="451.0"/>
      <point x="465.6" y="520.2"/>
      <point x="369.0" y="520.2" type="curve"/>
      <point x="299.0" y="520.2"/>
      <point x="240.0" y="481.20000000000005"/>
      <point x="197.8" y="425.2" type="curve"/>
    </contour>
    <contour>
      <point x="20.0" y="573.0" type="line"/>
      <point x="344.8" y="573.0" type="line"/>
      <point x="344.8" y="660.0" type="line"/>
      <point x="20.0" y="660.0" type="line"/>
    </contour>
  </outline>
</glyph>
<glyph name="kra" format="1">
  <advance width="558.2"/>
  <unicode hex="0138"/>
  <outline>
    <contour>
      <point x="81.0" y="0.0" type="line"/>
      <point x="207.8" y="0.0" type="line"/>
      <point x="207.8" y="521.0" type="line"/>
      <point x="81.0" y="521.0" type="line"/>
    </contour>
    <contour>
      <point x="171.8" y="127.0" type="line"/>
      <point x="538.4" y="521.0" type="line"/>
      <point x="380.0" y="521.0" type="line"/>
      <point x="171.8" y="276.6" type="line"/>
    </contour>
    <contour>
      <point x="239.79999999999998" y="266.6" type="line"/>
      <point x="404.79999999999995" y="0.0" type="line"/>
      <point x="552.2" y="0.0" type="line"/>
      <point x="322.0" y="346.2" type="line"/>
    </contour>
  </outline>
</glyph>
<glyph name="lslash" format="1">
  <advance width="310.8"/>
  <unicode hex="0142"/>
  <outline>
    <contour>
      <point x="92.0" y="0.0" type="line"/>
      <point x="218.8" y="0.0" type="line"/>
      <point x="218.8" y="735.0" type="line"/>
      <point x="92.0" y="715.0" type="line"/>
    </contour>
    <contour>
      <point x="26.0" y="190.0" type="line"/>
      <point x="289.8" y="336.0" type="line"/>
      <point x="289.8" y="452.0" type="line"/>
      <point x="26.0" y="306.0" type="line"/>
    </contour>
  </outline>
</glyph>
<glyph name="eng" format="1">
  <advance width="622.0"/>
  <unicode hex="014B"/>
  <outline>
    <contour>
      <point x="66.0" y="521.0" type="line"/>
      <point x="74.0" y="474.0" type="line" smooth="yes"/>
      <point x="79.0" y="445.0"/>
      <point x="81.0" y="425.20000000000005"/>
      <point x="81.0" y="397.20000000000005" type="curve" smooth="yes"/>
      <point x="81.0" y="0.0" type="line"/>
      <point x="207.8" y="0.0" type="line"/>
      <point x="207.8" y="421.0" type="line"/>
      <point x="188.0" y="521.0" type="line"/>
    </contour>
    <contour>
      <point x="281.2" y="-181.0" type="line"/>
      <point x="305.8" y="-189.60000000000002"/>
      <point x="340.0" y="-196.2"/>
      <point x="369.4" y="-196.2" type="curve" smooth="yes"/>
      <point x="474.4" y="-196.2"/>
      <point x="546.0" y="-131.0"/>
      <point x="546.0" y="-8.8" type="curve" smooth="yes"/>
      <point x="546.0" y="322.0" type="line" smooth="yes"/>
      <point x="546.0" y="463.0"/>
      <point x="460.6" y="532.2"/>
      <point x="364.0" y="532.2" type="curve"/>
      <point x="294.0" y="532.2"/>
      <point x="235.0" y="493.20000000000005"/>
      <point x="192.8" y="437.2" type="curve"/>
      <point x="192.8" y="349.0" type="line"/>
      <point x="229.0" y="391.20000000000005"/>
      <point x="276.2" y="414.6"/>
      <point x="321.4" y="414.6" type="curve"/>
      <point x="378.2" y="414.6"/>
      <point x="419.2" y="380.20000000000005"/>
      <point x="419.2" y="303.4" type="curve"/>
      <point x="419.2" y="-2.4000000000000004" type="line" smooth="yes"/>
      <point x="419.2" y="-62.8"/>
      <point x="393.2" y="-85.2"/>
      <point x="349.0" y="-85.2" type="curve" smooth="yes"/>
      <point x="331.4" y="-85.2"/>
      <point x="316.2" y="-81.8"/>
      <point x="297.20000000000005" y="-76.19999999999999" type="curve"/>
    </contour>
  </outline>
</glyph>
<glyph name="OE" format="1">
  <advance width="992.4000000000001"/>
  <unicode hex="0152"/>
  <outline>
    <contour>
      <point x="51.0" y="345.0" type="curve" smooth="yes"/>
      <point x="51.0" y="118.0"/>
      <point x="212.8" y="0.0"/>
      <point x="410.4" y="0.0" type="curve" smooth="yes"/>
      <point x="504.8" y="0.0" type="line"/>
      <point x="504.8" y="118.4" type="line"/>
      <point x="410.4" y="118.4" type="line" smooth="yes"/>
      <point x="283.0" y="118.4"/>
      <point x="188.4" y="187.8"/>
      <point x="188.4" y="345.0" type="curve" smooth="yes"/>
      <point x="188.4" y="502.2"/>
      <point x="283.0" y="571.6"/>
      <point x="410.4" y="571.6" type="curve" smooth="yes"/>
      <point x="504.8" y="571.6" type="line"/>
      <point x="504.8" y="690.0" type="line"/>
      <point x="410.4" y="690.0" type="line" smooth="yes"/>
      <point x="212.8" y="690.0"/>
      <point x="51.0" y="572.0"/>
    </contour>
    <contour>
      <point x="480.0" y="0.0" type="line"/>
      <point x="614.4" y="0.0" type="line"/>
      <point x="614.4" y="690.0" type="line"/>
      <point x="480.0" y="690.0" type="line"/>
    </contour>
    <contour>
      <point x="544.4" y="0.0" type="line"/>
      <point x="928.4000000000001" y="0.0" type="line"/>
      <point x="928.4000000000001" y="118.4" type="line"/>
      <point x="544.4" y="118.4" type="line"/>
    </contour>
    <contour>
      <point x="544.4" y="292.0" type="line"/>
      <point x="875.2" y="292.0" type="line"/>
      <point x="875.2" y="405.6" type="line"/>
      <point x="544.4" y="405.6" type="line"/>
    </contour>
    <contour>
      <point x="544.4" y="571.6" type="line"/>
      <point x="923.4000000000001" y="571.6" type="line"/>
      <point x="923.4000000000001" y="690.0" type="line"/>
      <point x="544.4" y="690.0" type="line"/>
    </contour>
  </outline>
</glyph>
<glyph name="tbar" format="1">
  <advance width="436.8"/>
  <unicode hex="0167"/>
  <outline>
    <contour>
      <point x="27.0" y="420.0" type="line"/>
      <point x="388.0" y="420.0" type="line"/>
      <point x="388.0" y="521.0" type="line"/>
      <point x="27.0" y="521.0" type="line"/>
    </contour>
    <contour>
      <point x="117.0" y="170.0" type="line" smooth="yes"/>
      <point x="117.0" y="50.400000000000006"/>
      <point x="187.0" y="-11.2"/>
      <point x="289.6" y="-11.2" type="curve" smooth="yes"/>
      <point x="326.79999999999995" y="-11.2"/>
      <point x="366.20000000000005" y="-2.8"/>
      <point x="398.79999999999995" y="9.2" type="curve"/>
      <point x="382.8" y="118.2" type="line"/>
      <point x="357.79999999999995" y="109.0"/>
      <point x="334.8" y="103.6"/>
      <point x="315.2" y="103.6" type="curve" smooth="yes"/>
      <point x="267.2" y="103.6"/>
      <point x="243.8" y="127.6"/>
      <point x="243.8" y="183.0" type="curve" smooth="yes"/>
      <point x="243.8" y="658.2" type="line"/>
      <point x="117.0" y="638.2" type="line"/>
    </contour>
    <contour>
      <point x="27.0" y="225.0" type="line"/>
      <point x="388.0" y="225.0" type="line"/>
      <point x="388.0" y="322.0" type="line"/>
      <point x="27.0" y="322.0" type="line"/>
    </contour>
  </outline>
</glyph>
<glyph name="Nhookleft" format="1">
  <advance width="753.8"/>
  <unicode hex="019D"/>
  <outline>
    <contour>
      <point x="-47.0" y="-181.0" type="line"/>
      <point x="-22.4" y="-189.60000000000002"/>
      <point x="11.8" y="-196.2"/>
      <point x="41.2" y="-196.2" type="curve" smooth="yes"/>
      <point x="147.0" y="-196.2"/>
      <point x="215.8" y="-131.0"/>
      <point x="215.8" y="-8.8" type="curve" smooth="yes"/>
      <point x="215.8" y="690.0" type="line"/>
      <point x="91.0" y="690.0" type="line"/>
      <point x="91.0" y="-2.4000000000000004" type="line" smooth="yes"/>
      <point x="91.0" y="-62.8"/>
      <point x="65.0" y="-85.2"/>
      <point x="20.8" y="-85.2" type="curve" smooth="yes"/>
      <point x="3.2" y="-85.2"/>
      <point x="-12.0" y="-81.8"/>
      <point x="-31.0" y="-76.19999999999999" type="curve"/>
    </contour>
    <contour>
      <point x="142.2" y="690.0" type="line"/>
      <point x="488.0" y="0.0" type="line"/>
      <point x="618.2" y="0.0" type="line"/>
      <point x="272.4" y="690.0" type="line"/>
    </contour>
    <contour>
      <point x="538.0" y="0.0" type="line"/>
      <point x="662.8" y="0.0" type="line"/>
      <point x="662.8" y="690.0" type="line"/>
      <point x="538.0" y="690.0" type="line"/>
    </contour>
  </outline>
</glyph>
<glyph name="dotlessj" format="1">
  <advance width="288.8"/>
  <unicode hex="0237"/>
  <outline>
    <contour>
      <point x="-57.0" y="-181.0" type="line"/>
      <point x="-32.4" y="-189.60000000000002"/>
      <point x="1.7999999999999998" y="-196.2"/>
      <point x="31.2" y="-196.2" type="curve"/>
      <point x="136.2" y="-196.2"/>
      <point x="207.8" y="-131.0"/>
      <point x="207.8" y="-8.8" type="curve" smooth="yes"/>
      <point x="207.8" y="521.0" type="line"/>
      <point x="81.0" y="521.0" type="line"/>
      <point x="81.0" y="-2.4000000000000004" type="line" smooth="yes"/>
      <point x="81.0" y="-62.8"/>
      <point x="55.0" y="-85.2"/>
      <point x="10.8" y="-85.2" type="curve"/>
      <point x="-6.8" y="-85.2"/>
      <point x="-22.0" y="-81.8"/>
      <point x="-41.0" y="-76.19999999999999" type="curve"/>
    </contour>
    <contour>
      <point x="144.4" y="521.0" type="move" name="top"/>
    </contour>
  </outline>
</glyph>
<glyph name="caron" format="1">
  <advance width="600.0"/>
  <unicode hex="02C7"/>
  <outline>
    <contour>
      <point x="139.8" y="746.0" type="line"/>
      <point x="235.8" y="596.0" type="line"/>
      <point x="360.6" y="596.0" type="line"/>
      <point x="243.2" y="746.0" type="line"/>
    </contour>
    <contour>
      <point x="239.4" y="596.0" type="line"/>
      <point x="364.2" y="596.0" type="line"/>
      <point x="460.20000000000005" y="746.0" type="line"/>
      <point x="356.8" y="746.0" type="line"/>
    </contour>
    <contour>
      <point x="300.0" y="521.0" type="move" name="_top"/>
    </contour>
  </outline>
</glyph>
<glyph name="dotaccent" format="1">
  <advance width="600.0"/>
  <unicode hex="02D9"/>
  <outline>
    <contour>
      <point x="229.39999999999998" y="668.8" type="curve" smooth="yes"/>
      <point x="229.39999999999998" y="627.8"/>
      <point x="258.4" y="599.0"/>
      <point x="300.0" y="599.0" type="curve" smooth="yes"/>
      <point x="342.4" y="599.0"/>
      <point x="370.6" y="627.8"/>
      <point x="370.6" y="668.8" type="curve" smooth="yes"/>
      <point x="370.6" y="710.2"/>
      <point x="342.4" y="739.0"/>
      <point x="300.0" y="739.0" type="curve" smooth="yes"/>
      <point x="258.4" y="739.0"/>
      <point x="229.39999999999998" y="710.2"/>
    </contour>
    <contour>
      <point x="300.0" y="521.0" type="move" name="_top"/>
    </contour>
  </outline>
</glyph>
<glyph name="ogonek" format="1">
  <advance width="600.0"/>
  <unicode hex="02DB"/>
  <outline>
    <contour>
      <point x="232.8" y="-110.0" type="curve" smooth="yes"/>
      <point x="232.8" y="-163.8"/>
      <point x="273.6" y="-196.2"/>
      <point x="331.2" y="-196.2" type="curve" smooth="yes"/>
      <point x="365.8" y="-196.2"/>
      <point x="393.4" y="-185.0"/>
      <point x="418.0" y="-170.0" type="curve"/>
      <point x="392.0" y="-108.2" type="line"/>
      <point x="376.79999999999995" y="-117.39999999999999"/>
      <point x="362.0" y="-125.80000000000001"/>
      <point x="342.4" y="-125.80000000000001" type="curve" smooth="yes"/>
      <point x="322.8" y="-125.80000000000001"/>
      <point x="310.2" y="-112.6"/>
      <point x="310.2" y="-94.0" type="curve" smooth="yes"/>
      <point x="310.2" y="-61.6"/>
      <point x="340.4" y="-30.0"/>
      <point x="404.0" y="0.0" type="curve"/>
      <point x="300.0" y="0.0" type="line"/>
      <point x="260.0" y="-26.8"/>
      <point x="232.8" y="-64.6"/>
    </contour>
    <contour>
      <point x="300.0" y="0.0" type="move" name="_ogonek"/>
    </contour>
  </outline>
</glyph>
<glyph name="dagger" format="1">
  <advance width="464.8"/>
  <unicode hex="2020"/>
  <outline>
    <contour>
      <point x="174.0" y="-185.0" type="line"/>
      <point x="290.8" y="-185.0" type="line"/>
      <point x="290.8" y="720.0" type="line"/>
      <point x="174.0" y="720.0" type="line"/>
    </contour>
    <contour>
      <point x="30.0" y="421.0" type="line"/>
      <point x="434.8" y="421.0" type="line"/>
      <point x="434.8" y="521.0" type="line"/>
      <point x="30.0" y="521.0" type="line"/>
    </contour>
  </outline>
</glyph>
<glyph name="bullet" format="1">
  <advance width="400.0"/>
  <unicode hex="2022"/>
  <outline>
    <contour>
      <point x="80.0" y="290.0" type="curve" smooth="yes"/>
      <point x="80.0" y="220.0"/>
      <point x="130.0" y="170.0"/>
      <point x="200.0" y="170.0" type="curve" smooth="yes"/>
      <point x="270.0" y="170.0"/>
      <point x="320.0" y="220.0"/>
      <point x="320.0" y="290.0" type="curve" smooth="yes"/>
      <point x="320.0" y="360.0"/>
      <point x="270.0" y="410.0"/>
      <point x="200.0" y="410.0" type="curve" smooth="yes"/>
      <point x="130.0" y="410.0"/>
      <point x="80.0" y="360.0"/>
    </contour>
  </outline>
</glyph>
<glyph name="perthousand" format="1">
  <advance width="1377.2"/>
  <unicode hex="2030"/>
  <outline>
    <contour>
      <point x="72.0" y="518.0" type="curve" smooth="yes"/>
      <point x="72.0" y="408.0"/>
      <point x="149.6" y="335.20000000000005"/>
      <point x="247.8" y="335.20000000000005" type="curve" smooth="yes"/>
      <point x="346.0" y="335.20000000000005"/>
      <point x="423.6" y="408.0"/>
      <point x="423.6" y="518.0" type="curve" smooth="yes"/>
      <point x="423.6" y="628.0"/>
      <point x="346.0" y="701.2"/>
      <point x="247.8" y="701.2" type="curve" smooth="yes"/>
      <point x="149.6" y="701.2"/>
      <point x="72.0" y="628.0"/>
    </contour>
    <contour>
      <point x="169.8" y="518.0" type="curve" smooth="yes"/>
      <point x="169.8" y="579.0"/>
      <point x="204.4" y="615.0"/>
      <point x="247.8" y="615.0" type="curve" smooth="yes"/>
      <point x="291.2" y="615.0"/>
      <point x="325.79999999999995" y="579.0"/>
      <point x="325.79999999999995" y="518.0" type="curve" smooth="yes"/>
      <point x="325.79999999999995" y="457.0"/>
      <point x="291.2" y="421.4"/>
      <point x="247.8" y="421.4" type="curve" smooth="yes"/>
      <point x="204.4" y="421.4"/>
      <point x="169.8" y="457.0"/>
    </contour>
    <contour>
      <point x="199.8" y="0.0" type="line"/>
      <point x="322.6" y="0.0" type="line"/>
      <point x="772.5999999999999" y="690.0" type="line"/>
      <point x="649.8" y="690.0" type="line"/>
    </contour>
    <contour>
      <point x="548.8" y="171.60000000000002" type="curve" smooth="yes"/>
      <point x="548.8" y="61.6"/>
      <point x="626.4" y="-11.2"/>
      <point x="724.6" y="-11.2" type="curve" smooth="yes"/>
      <point x="822.8" y="-11.2"/>
      <point x="900.4" y="61.6"/>
      <point x="900.4" y="171.60000000000002" type="curve" smooth="yes"/>
      <point x="900.4" y="281.6"/>
      <point x="822.8" y="354.8"/>
      <point x="724.6" y="354.8" type="curve" smooth="yes"/>
      <point x="626.4" y="354.8"/>
      <point x="548.8" y="281.6"/>
    </contour>
    <contour>
      <point x="646.6" y="171.60000000000002" type="curve" smooth="yes"/>
      <point x="646.6" y="232.60000000000002"/>
      <point x="681.2" y="268.6"/>
      <point x="724.6" y="268.6" type="curve" smooth="yes"/>
      <point x="768.0" y="268.6"/>
      <point x="802.6" y="232.60000000000002"/>
      <point x="802.6" y="171.60000000000002" type="curve" smooth="yes"/>
      <point x="802.6" y="110.6"/>
      <point x="768.0" y="75.0"/>
      <point x="724.6" y="75.0" type="curve" smooth="yes"/>
      <point x="681.2" y="75.0"/>
      <point x="646.6" y="110.6"/>
    </contour>
    <contour>
      <point x="953.5999999999999" y="171.60000000000002" type="curve" smooth="yes"/>
      <point x="953.5999999999999" y="61.6"/>
      <point x="1031.2" y="-11.2"/>
      <point x="1129.4" y="-11.2" type="curve" smooth="yes"/>
      <point x="1227.6" y="-11.2"/>
      <point x="1305.2" y="61.6"/>
      <point x="1305.2" y="171.60000000000002" type="curve" smooth="yes"/>
      <point x="1305.2" y="281.6"/>
      <point x="1227.6" y="354.8"/>
      <point x="1129.4" y="354.8" type="curve" smooth="yes"/>
      <point x="1031.2" y="354.8"/>
      <point x="953.5999999999999" y="281.6"/>
    </contour>
    <contour>
      <point x="1051.4" y="171.60000000000002" type="curve" smooth="yes"/>
      <point x="1051.4" y="232.60000000000002"/>
      <point x="1086.0" y="268.6"/>
      <point x="1129.4" y="268.6" type="curve" smooth="yes"/>
      <point x="1172.8" y="268.6"/>
      <point x="1207.4" y="232.60000000000002"/>
      <point x="1207.4" y="171.60000000000002" type="curve" smooth="yes"/>
      <point x="1207.4" y="110.6"/>
      <point x="1172.8" y="75.0"/>
      <point x="1129.4" y="75.0" type="curve" smooth="yes"/>
      <point x="1086.0" y="75.0"/>
      <point x="1051.4" y="110.6"/>
    </contour>
  </outline>
</glyph>
<glyph name="guilsinglleft" format="1">
  <advance width="308.0"/>
  <unicode hex="2039"/>
  <outline>
    <contour>
      <point x="39.0" y="242.20000000000002" type="line"/>
      <point x="145.2" y="86.0" type="line"/>
      <point x="282.0" y="86.0" type="line"/>
      <point x="135.0" y="296.0" type="line"/>
      <point x="39.0" y="302.8" type="line"/>
    </contour>
    <contour>
      <point x="39.0" y="244.2" type="line"/>
      <point x="135.0" y="251.0" type="line"/>
      <point x="282.0" y="461.0" type="line"/>
      <point x="145.2" y="461.0" type="line"/>
      <point x="39.0" y="304.8" type="line"/>
    </contour>
  </outline>
</glyph>
<glyph name="litre" format="1">
  <advance width="500.0"/>
  <unicode hex="2113"/>
  <outline>
    <contour>
      <point x="108.0" y="170.0" type="line" smooth="yes"/>
      <point x="108.0" y="50.400000000000006"/>
      <point x="178.0" y="-11.2"/>
      <point x="280.6" y="-11.2" type="curve" smooth="yes"/>
      <point x="317.79999999999995" y="-11.2"/>
      <point x="357.20000000000005" y="-2.8"/>
      <point x="389.79999999999995" y="9.2" type="curve"/>
      <point x="373.8" y="118.2" type="line"/>
      <point x="348.79999999999995" y="109.0"/>
      <point x="325.8" y="103.6"/>
      <point x="306.2" y="103.6" type="curve" smooth="yes"/>
      <point x="258.2" y="103.6"/>
      <point x="234.8" y="127.6"/>
      <point x="234.8" y="183.0" type="curve" smooth="yes"/>
      <point x="234.8" y="542.6" type="line" smooth="yes"/>
      <point x="234.8" y="592.0"/>
      <point x="252.2" y="627.6"/>
      <point x="287.0" y="627.6" type="curve" smooth="yes"/>
      <point x="321.8" y="627.6"/>
      <point x="339.20000000000005" y="592.0"/>
      <point x="339.20000000000005" y="542.6" type="curve" smooth="yes"/>
      <point x="339.20000000000005" y="380.0"/>
      <point x="204.0" y="308.0"/>
      <point x="28.0" y="244.0" type="curve"/>
      <point x="64.0" y="148.4" type="line"/>
      <point x="256.0" y="208.0"/>
      <point x="460.0" y="316.0"/>
      <point x="460.0" y="546.8" type="curve" smooth="yes"/>
      <point x="460.0" y="656.0"/>
      <point x="398.0" y="731.2"/>
      <point x="287.0" y="731.2" type="curve" smooth="yes"/>
      <point x="176.0" y="731.2"/>
      <point x="108.0" y="656.0"/>
      <point x="108.0" y="546.8" type="curve" smooth="yes"/>
    </contour>
  </outline>
</glyph>
<glyph name="numero" format="1">
  <advance width="1138.0"/>
  <unicode hex="2116"/>
  <outline>
    <contour>
      <point x="752.0" y="490.0" type="curve" smooth="yes"/>
      <point x="752.0" y="347.4"/>
      <point x="827.0" y="278.79999999999995"/>
      <point x="918.0" y="278.79999999999995" type="curve" smooth="yes"/>
      <point x="1009.6" y="278.79999999999995"/>
      <point x="1084.0" y="347.4"/>
      <point x="1084.0" y="490.0" type="curve" smooth="yes"/>
      <point x="1084.0" y="632.6"/>
      <point x="1009.6" y="701.2"/>
      <point x="918.0" y="701.2" type="curve" smooth="yes"/>
      <point x="827.0" y="701.2"/>
      <point x="752.0" y="632.6"/>
    </contour>
    <contour>
      <point x="850.0" y="490.0" type="curve" smooth="yes"/>
      <point x="850.0" y="573.4"/>
      <point x="880.2" y="612.0"/>
      <point x="918.0" y="612.0" type="curve" smooth="yes"/>
      <point x="955.8" y="612.0"/>
      <point x="986.0" y="573.4"/>
      <point x="986.0" y="490.0" type="curve" smooth="yes"/>
      <point x="986.0" y="406.6"/>
      <point x="955.8" y="368.0"/>
      <point x="918.0" y="368.0" type="curve" smooth="yes"/>
      <point x="880.2" y="368.0"/>
      <point x="850.0" y="406.6"/>
    </contour>
    <contour>
      <point x="762.0" y="96.0" type="line"/>
      <point x="1074.0" y="96.0" type="line"/>
      <point x="1074.0" y="200.0" type="line"/>
      <point x="762.0" y="200.0" type="line"/>
    </contour>
    <contour>
      <point x="91.0" y="0.0" type="line"/>
      <point x="215.8" y="0.0" type="line"/>
      <point x="215.8" y="690.0" type="line"/>
      <point x="91.0" y="690.0" type="line"/>
    </contour>
    <contour>
      <point x="142.2" y="690.0" type="line"/>
      <point x="488.0" y="0.0" type="line"/>
      <point x="618.2" y="0.0" type="line"/>
      <point x="272.4" y="690.0" type="line"/>
    </contour>
    <contour>
      <point x="538.0" y="0.0" type="line"/>
      <point x="662.8" y="0.0" type="line"/>
      <point x="662.8" y="690.0" type="line"/>
      <point x="538.0" y="690.0" type="line"/>
    </contour>
  </outline>
</glyph>
<glyph name="trademark" format="1">
  <advance width="932.0"/>
  <unicode hex="2122"/>
  <outline>
    <contour>
      <point x="34.0" y="601.2" type="line"/>
      <point x="360.0" y="601.2" type="line"/>
      <point x="360.0" y="690.0" type="line"/>
      <point x="34.0" y="690.0" type="line"/>
    </contour>
    <contour>
      <point x="148.0" y="290.0" type="line"/>
      <point x="246.0" y="290.0" type="line"/>
      <point x="246.0" y="690.0" type="line"/>
      <point x="148.0" y="690.0" type="line"/>
    </contour>
    <contour>
      <point x="428.4" y="290.0" type="line"/>
      <point x="518.0" y="290.0" type="line"/>
      <point x="518.0" y="690.0" type="line"/>
      <point x="428.4" y="690.0" type="line"/>
    </contour>
    <contour>
      <point x="483.6" y="690.0" type="line"/>
      <point x="594.0" y="369.0" type="line"/>
      <point x="658.8" y="369.0" type="line"/>
      <point x="658.8" y="426.0" type="line"/>
      <point x="569.2" y="690.0" type="line"/>
    </contour>
    <contour>
      <point x="616.0" y="426.0" type="line"/>
      <point x="616.0" y="369.0" type="line"/>
      <point x="680.8" y="369.0" type="line"/>
      <point x="791.2" y="690.0" type="line"/>
      <point x="705.5999999999999" y="690.0" type="line"/>
    </contour>
    <contour>
      <point x="756.8" y="290.0" type="line"/>
      <point x="846.4" y="290.0" type="line"/>
      <point x="846.4" y="690.0" type="line"/>
      <point x="756.8" y="690.0" type="line"/>
    </contour>
  </outline>
</glyph>
<glyph name="estimated" format="1">
  <advance width="706.0"/>
  <unicode hex="212E"/>
  <outline>
    <contour>
      <point x="60.0" y="345.0" type="curve" smooth="yes"/>
      <point x="60.0" y="112.0"/>
      <point x="191.0" y="-10.0"/>
      <point x="372.0" y="-10.0" type="curve" smooth="yes"/>
      <point x="465.0" y="-10.0"/>
      <point x="542.0" y="20.0"/>
      <point x="604.0" y="64.0" type="curve"/>
      <point x="573.0" y="116.0" type="line"/>
      <point x="522.0" y="80.0"/>
      <point x="454.0" y="50.0"/>
      <point x="376.0" y="50.0" type="curve" smooth="yes"/>
      <point x="218.0" y="50.0"/>
      <point x="120.0" y="149.0"/>
      <point x="120.0" y="345.0" type="curve" smooth="yes"/>
      <point x="120.0" y="541.0"/>
      <point x="219.0" y="640.0"/>
      <point x="352.0" y="640.0" type="curve" smooth="yes"/>
      <point x="486.0" y="640.0"/>
      <point x="585.0" y="541.0"/>
      <point x="585.0" y="356.0" type="curve"/>
      <point x="600.0" y="390.0" type="line"/>
      <point x="90.0" y="390.0" type="line"/>
      <point x="90.0" y="330.0" type="line"/>
      <point x="644.0" y="330.0" type="line"/>
      <point x="645.0" y="340.0"/>
      <point x="646.0" y="355.0"/>
      <point x="646.0" y="365.0" type="curve" smooth="yes"/>
      <point x="646.0" y="578.0"/>
      <point x="513.0" y="700.0"/>
      <point x="352.0" y="700.0" type="curve" smooth="yes"/>
      <point x="191.0" y="700.0"/>
      <point x="60.0" y="578.0"/>
    </contour>
    <contour>
      <point x="90.0" y="220.0" type="line"/>
      <point x="204.0" y="80.0" type="line"/>
      <point x="204.0" y="600.0" type="line"/>
      <point x="90.0" y="480.0" type="line"/>
    </contour>
    <contour>
      <point x="501.0" y="350.0" type="line"/>
      <point x="615.0" y="350.0" type="line"/>
      <point x="615.0" y="480.0" type="line"/>
      <point x="501.0" y="600.0" type="line"/>
    </contour>
  </outline>
</glyph>
<glyph name="product" format="1">
  <advance width="746.0"/>
  <unicode hex="220F"/>
  <outline>
    <contour>
      <point x="139.0" y="-185.0" type="line"/>
      <point x="273.4" y="-185.0" type="line"/>
      <point x="273.4" y="690.0" type="line"/>
      <point x="139.0" y="690.0" type="line"/>
    </contour>
    <contour>
      <point x="57.0" y="571.6" type="line"/>
      <point x="689.0" y="571.6" type="line"/>
      <point x="689.0" y="690.0" type="line"/>
      <point x="57.0" y="690.0" type="line"/>
    </contour>
    <contour>
      <point x="472.6" y="-185.0" type="line"/>
      <point x="607.0" y="-185.0" type="line"/>
      <point x="607.0" y="690.0" type="line"/>
      <point x="472.6" y="690.0" type="line"/>
    </contour>
  </outline>
</glyph>
<glyph name="minus" format="1">
  <advance width="600.0"/>
  <unicode hex="2212"/>
  <outline>
    <contour>
      <point x="66.4" y="233.79999999999998" type="line"/>
      <point x="533.6" y="233.79999999999998" type="line"/>
      <point x="533.6" y="346.2" type="line"/>
      <point x="66.4" y="346.2" type="line"/>
    </contour>
  </outline>
</glyph>
<glyph name="radical" format="1">
  <advance width="724.0"/>
  <unicode hex="221A"/>
  <outline>
    <contour>
      <point x="100.0" y="342.0" type="line"/>
      <point x="300.8" y="-185.0" type="line"/>
      <point x="382.0" y="-185.0" type="line"/>
      <point x="381.6" y="-95.0" type="line"/>
      <point x="235.0" y="342.0" type="line"/>
    </contour>
    <contour>
      <point x="326.20000000000005" y="-95.0" type="line"/>
      <point x="326.6" y="-185.0" type="line"/>
      <point x="401.6" y="-185.0" type="line"/>
      <point x="734.0" y="690.0" type="line"/>
      <point x="597.0" y="690.0" type="line"/>
    </contour>
    <contour>
      <point x="20.0" y="226.0" type="line"/>
      <point x="202.0" y="226.0" type="line"/>
      <point x="202.0" y="342.0" type="line"/>
      <point x="20.0" y="342.0" type="line"/>
    </contour>
  </outline>
</glyph>
<glyph name="integral" format="1">
  <advance width="440.0"/>
  <unicode hex="222B"/>
  <outline>
    <contour>
      <point x="2.6000000000000014" y="-179.2" type="line"/>
      <point x="30.8" y="-189.60000000000002"/>
      <point x="67.4" y="-196.2"/>
      <point x="97.4" y="-196.2" type="curve"/>
      <point x="206.0" y="-196.2"/>
      <point x="276.4" y="-124.4"/>
      <point x="276.4" y="-6.400000000000002" type="curve" smooth="yes"/>
      <point x="276.4" y="541.0" type="line" smooth="yes"/>
      <point x="276.4" y="597.8"/>
      <point x="299.4" y="625.6"/>
      <point x="347.8" y="625.6" type="curve"/>
      <point x="367.8" y="625.6"/>
      <point x="388.4" y="621.5999999999999"/>
      <point x="407.4" y="616.0" type="curve"/>
      <point x="423.4" y="714.2" type="line"/>
      <point x="395.2" y="724.6"/>
      <point x="358.6" y="731.2"/>
      <point x="328.6" y="731.2" type="curve"/>
      <point x="220.0" y="731.2"/>
      <point x="149.60000000000002" y="659.4000000000001"/>
      <point x="149.60000000000002" y="541.4000000000001" type="curve" smooth="yes"/>
      <point x="149.60000000000002" y="-6.0" type="line" smooth="yes"/>
      <point x="149.60000000000002" y="-62.8"/>
      <point x="126.6" y="-90.6"/>
      <point x="78.2" y="-90.6" type="curve"/>
      <point x="58.2" y="-90.6"/>
      <point x="37.6" y="-86.6"/>
      <point x="18.6" y="-81.0" type="curve"/>
    </contour>
  </outline>
</glyph>
<glyph name="approxequal" format="1">
  <advance width="600.0"/>
  <unicode hex="2248"/>
  <outline>
    <contour>
      <point x="115.6" y="93.8" type="line"/>
      <point x="138.0" y="113.8"/>
      <point x="171.6" y="137.8"/>
      <point x="211.60000000000002" y="137.8" type="curve" smooth="yes"/>
      <point x="281.6" y="137.8"/>
      <point x="318.8" y="89.8"/>
      <point x="398.8" y="89.8" type="curve" smooth="yes"/>
      <point x="458.8" y="89.8"/>
      <point x="508.4" y="126.6"/>
      <point x="549.2" y="164.2" type="curve"/>
      <point x="484.4" y="243.79999999999998" type="line"/>
      <point x="462.0" y="223.79999999999998"/>
      <point x="428.4" y="199.8"/>
      <point x="388.4" y="199.8" type="curve" smooth="yes"/>
      <point x="318.4" y="199.8"/>
      <point x="281.2" y="247.79999999999998"/>
      <point x="201.2" y="247.79999999999998" type="curve" smooth="yes"/>
      <point x="141.2" y="247.79999999999998"/>
      <point x="91.6" y="211.0"/>
      <point x="50.8" y="173.4" type="curve"/>
    </contour>
    <contour>
      <point x="115.6" y="336.2" type="line"/>
      <point x="138.0" y="356.2"/>
      <point x="171.6" y="380.2"/>
      <point x="211.60000000000002" y="380.2" type="curve" smooth="yes"/>
      <point x="281.6" y="380.2"/>
      <point x="318.8" y="332.2"/>
      <point x="398.8" y="332.2" type="curve" smooth="yes"/>
      <point x="458.8" y="332.2"/>
      <point x="508.4" y="369.0"/>
      <point x="549.2" y="406.6" type="curve"/>
      <point x="484.4" y="486.2" type="line"/>
      <point x="462.0" y="466.2"/>
      <point x="428.4" y="442.2"/>
      <point x="388.4" y="442.2" type="curve" smooth="yes"/>
      <point x="318.4" y="442.2"/>
      <point x="281.2" y="490.2"/>
      <point x="201.2" y="490.2" type="curve" smooth="yes"/>
      <point x="141.2" y="490.2"/>
      <point x="91.6" y="453.4"/>
      <point x="50.8" y="415.8" type="curve"/>
    </contour>
  </outline>
</glyph>
<glyph name="I.alt" format="1">
  <advance width="316.4"/>
  <outline>
    <contour>
      <point x="91.0" y="0.0" type="line"/>
      <point x="225.4" y="0.0" type="line"/>
      <point x="225.4" y="690.0" type="line"/>
      <point x="91.0" y="690.0" type="line"/>
    </contour>
    <contour>
      <point x="158.2" y="690.0" type="move" name="top"/>
    </contour>
    <contour>
      <point x="91.0" y="0.0" type="move" name="ogonek"/>
    </contour>
    <contour>
      <point x="158.2" y="0.0" type="move" name="bottom"/>
    </contour>
  </outline>
</glyph>
<glyph name="J.alt" format="1">
  <advance width="570.6"/>
  <outline>
    <contour>
      <point x="27.0" y="87.2" type="line"/>
      <point x="75.19999999999999" y="28.200000000000003"/>
      <point x="149.4" y="-11.2"/>
      <point x="235.79999999999998" y="-11.2" type="curve" smooth="yes"/>
      <point x="376.0" y="-11.2"/>
      <point x="489.6" y="78.0"/>
      <point x="489.6" y="241.4" type="curve" smooth="yes"/>
      <point x="489.6" y="690.0" type="line"/>
      <point x="356.0" y="690.0" type="line"/>
      <point x="356.0" y="257.4" type="line" smooth="yes"/>
      <point x="356.0" y="158.2"/>
      <point x="309.4" y="109.8"/>
      <point x="232.39999999999998" y="109.8" type="curve" smooth="yes"/>
      <point x="178.6" y="109.8"/>
      <point x="136.39999999999998" y="140.0"/>
      <point x="113.0" y="176.8" type="curve"/>
    </contour>
    <contour>
      <point x="424.0" y="690.0" type="move" name="top"/>
    </contour>
  </outline>
</glyph>
<glyph name="a.alt" format="1">
  <advance width="556.4"/>
  <outline>
    <contour>
      <point x="45.0" y="135.6" type="curve"/>
      <point x="45.0" y="46.4"/>
      <point x="114.4" y="-11.2"/>
      <point x="194.8" y="-11.2" type="curve"/>
      <point x="266.4" y="-11.2"/>
      <point x="328.8" y="27.4"/>
      <point x="363.6" y="80.8" type="curve"/>
      <point x="363.6" y="160.6" type="line"/>
      <point x="325.6" y="117.0"/>
      <point x="277.2" y="89.6"/>
      <point x="226.8" y="89.6" type="curve"/>
      <point x="189.4" y="89.6"/>
      <point x="163.6" y="111.2"/>
      <point x="163.6" y="149.0" type="curve"/>
      <point x="163.6" y="187.2"/>
      <point x="194.6" y="222.8"/>
      <point x="300.0" y="230.4" type="curve" smooth="yes"/>
      <point x="371.6" y="235.2" type="line"/>
      <point x="371.6" y="312.2" type="line"/>
      <point x="292.4" y="309.6" type="line" smooth="yes"/>
      <point x="118.0" y="303.6"/>
      <point x="45.0" y="229.4"/>
    </contour>
    <contour>
      <point x="61.2" y="484.6" type="curve"/>
      <point x="98.0" y="382.6" type="line"/>
      <point x="138.8" y="404.0"/>
      <point x="186.4" y="422.0"/>
      <point x="241.2" y="422.0" type="curve"/>
      <point x="311.8" y="422.0"/>
      <point x="348.6" y="386.9212121212121"/>
      <point x="348.6" y="316.4" type="curve" smooth="yes"/>
      <point x="348.6" y="132.0" type="line"/>
      <point x="355.20000000000005" y="88.0" type="line"/>
      <point x="361.0" y="17.2"/>
      <point x="407.0" y="-11.2"/>
      <point x="460.79999999999995" y="-11.2" type="curve"/>
      <point x="480.0" y="-11.2"/>
      <point x="502.0" y="-6.6000000000000005"/>
      <point x="518.4000000000001" y="0.0" type="curve"/>
      <point x="518.4000000000001" y="102.6" type="line"/>
      <point x="511.6" y="100.19999999999999"/>
      <point x="506.0" y="99.2"/>
      <point x="499.20000000000005" y="99.2" type="curve"/>
      <point x="484.20000000000005" y="99.2"/>
      <point x="475.4" y="107.19999999999999"/>
      <point x="475.4" y="128.2" type="curve" smooth="yes"/>
      <point x="475.4" y="325.6" type="line" smooth="yes"/>
      <point x="475.4" y="462.11428571428564"/>
      <point x="384.79999999999995" y="532.2"/>
      <point x="258.6" y="532.2" type="curve"/>
      <point x="185.60000000000002" y="532.2"/>
      <point x="110.6" y="510.0"/>
    </contour>
    <contour>
      <point x="264.4" y="521.0" type="move" name="top"/>
    </contour>
    <contour>
      <point x="414.4" y="0.0" type="move" name="ogonek"/>
    </contour>
    <contour>
      <point x="264.4" y="0.0" type="move" name="bottom"/>
    </contour>
  </outline>
</glyph>
<glyph name="aogonek.alt" format="1">
  <advance width="556.4"/>
  <outline>
    <contour>
      <point x="45.0" y="135.6" type="curve"/>
      <point x="45.0" y="46.4"/>
      <point x="114.4" y="-11.2"/>
      <point x="194.8" y="-11.2" type="curve"/>
      <point x="266.4" y="-11.2"/>
      <point x="328.8" y="27.4"/>
      <point x="363.6" y="80.8" type="curve"/>
      <point x="363.6" y="160.6" type="line"/>
      <point x="325.6" y="117.0"/>
      <point x="277.2" y="89.6"/>
      <point x="226.8" y="89.6" type="curve"/>
      <point x="189.4" y="89.6"/>
      <point x="163.6" y="111.2"/>
      <point x="163.6" y="149.0" type="curve"/>
      <point x="163.6" y="187.2"/>
      <point x="194.6" y="222.8"/>
      <point x="300.0" y="230.4" type="curve" smooth="yes"/>
      <point x="371.6" y="235.2" type="line"/>
      <point x="371.6" y="312.2" type="line"/>
      <point x="292.4" y="309.6" type="line" smooth="yes"/>
      <point x="118.0" y="303.6"/>
      <point x="45.0" y="229.4"/>
    </contour>
    <contour>
      <point x="61.2" y="484.6" type="curve"/>
      <point x="98.0" y="382.6" type="line"/>
      <point x="138.8" y="404.0"/>
      <point x="186.4" y="422.0"/>
      <point x="241.2" y="422.0" type="curve"/>
      <point x="311.8" y="422.0"/>
      <point x="348.6" y="387.0"/>
      <point x="348.6" y="316.4" type="curve" smooth="yes"/>
      <point x="348.6" y="132.0" type="line"/>
      <point x="355.20000000000005" y="88.0" type="line"/>
      <point x="361.0" y="17.2"/>
      <point x="407.0" y="-11.2"/>
      <point x="460.79999999999995" y="-11.2" type="curve"/>
      <point x="480.0" y="-11.2"/>
      <point x="502.0" y="-6.6000000000000005"/>
      <point x="518.4000000000001" y="0.0" type="curve"/>
      <point x="518.4000000000001" y="102.6" type="line"/>
      <point x="511.6" y="100.19999999999999"/>
      <point x="506.0" y="99.2"/>
      <point x="499.20000000000005" y="99.2" type="curve"/>
      <point x="484.20000000000005" y="99.2"/>
      <point x="475.4" y="107.19999999999999"/>
      <point x="475.4" y="128.2" type="curve" smooth="yes"/>
      <point x="475.4" y="325.6" type="line" smooth="yes"/>
      <point x="475.4" y="462.0"/>
      <point x="384.79999999999995" y="532.2"/>
      <point x="258.6" y="532.2" type="curve"/>
      <point x="185.60000000000002" y="532.2"/>
      <point x="110.6" y="510.0"/>
    </contour>
    <contour>
      <point x="347.2" y="-110.0" type="curve" smooth="yes"/>
      <point x="347.2" y="-163.8"/>
      <point x="388.0" y="-196.2"/>
      <point x="445.6" y="-196.2" type="curve" smooth="yes"/>
      <point x="480.20000000000005" y="-196.2"/>
      <point x="507.8" y="-185.0"/>
      <point x="532.4000000000001" y="-170.0" type="curve"/>
      <point x="506.40000000000003" y="-108.2" type="line"/>
      <point x="491.2" y="-117.39999999999999"/>
      <point x="476.40000000000003" y="-125.80000000000001"/>
      <point x="456.8" y="-125.80000000000001" type="curve" smooth="yes"/>
      <point x="437.2" y="-125.80000000000001"/>
      <point x="424.6" y="-112.6"/>
      <point x="424.6" y="-94.0" type="curve" smooth="yes"/>
      <point x="424.6" y="-61.6"/>
      <point x="454.8" y="-30.0"/>
      <point x="518.4000000000001" y="0.0" type="curve"/>
      <point x="414.4" y="0.0" type="line"/>
      <point x="374.4" y="-26.8"/>
      <point x="347.2" y="-64.6"/>
    </contour>
  </outline>
</glyph>
<glyph name="caron.alt" format="1">
  <advance width="600.0"/>
  <outline>
    <contour>
      <point x="257.2" y="531.0" type="line"/>
      <point x="357.2" y="531.0" type="line"/>
      <point x="408.79999999999995" y="731.2" type="line"/>
      <point x="291.2" y="731.2" type="line"/>
    </contour>
    <contour>
      <point x="300.0" y="720.0" type="move" name="_caron.alt"/>
    </contour>
  </outline>
</glyph>
<glyph name="caron.cap" format="1">
  <advance width="600.0"/>
  <outline>
    <contour>
      <point x="126.4" y="885.0" type="line"/>
      <point x="227.2" y="750.0" type="line"/>
      <point x="369.6" y="750.0" type="line"/>
      <point x="234.79999999999998" y="885.0" type="line"/>
    </contour>
    <contour>
      <point x="231.6" y="750.0" type="line"/>
      <point x="374.0" y="750.0" type="line"/>
      <point x="474.8" y="885.0" type="line"/>
      <point x="366.4" y="885.0" type="line"/>
    </contour>
    <contour>
      <point x="300.0" y="690.0" type="move" name="_top"/>
    </contour>
  </outline>
</glyph>
<glyph name="dieresis.cap" format="1">
  <advance width="600.0"/>
  <outline>
    <contour>
      <point x="120.19999999999999" y="824.8" type="curve" smooth="yes"/>
      <point x="120.19999999999999" y="785.4000000000001"/>
      <point x="148.0" y="757.0"/>
      <point x="189.2" y="757.0" type="curve" smooth="yes"/>
      <point x="231.2" y="757.0"/>
      <point x="258.2" y="785.4000000000001"/>
      <point x="258.2" y="824.8" type="curve" smooth="yes"/>
      <point x="258.2" y="864.6"/>
      <point x="231.2" y="893.0"/>
      <point x="189.2" y="893.0" type="curve" smooth="yes"/>
      <point x="148.0" y="893.0"/>
      <point x="120.19999999999999" y="864.6"/>
    </contour>
    <contour>
      <point x="341.79999999999995" y="824.8" type="curve" smooth="yes"/>
      <point x="341.79999999999995" y="785.4000000000001"/>
      <point x="369.6" y="757.0"/>
      <point x="410.79999999999995" y="757.0" type="curve" smooth="yes"/>
      <point x="452.8" y="757.0"/>
      <point x="479.79999999999995" y="785.4000000000001"/>
      <point x="479.79999999999995" y="824.8" type="curve" smooth="yes"/>
      <point x="479.79999999999995" y="864.6"/>
      <point x="452.8" y="893.0"/>
      <point x="410.79999999999995" y="893.0" type="curve" smooth="yes"/>
      <point x="369.6" y="893.0"/>
      <point x="341.79999999999995" y="864.6"/>
    </contour>
    <contour>
      <point x="300.0" y="690.0" type="move" name="_top"/>
    </contour>
  </outline>
</glyph>
<glyph name="dotaccent.cap" format="1">
  <advance width="600.0"/>
  <outline>
    <contour>
      <point x="229.39999999999998" y="824.8" type="curve" smooth="yes"/>
      <point x="229.39999999999998" y="783.8"/>
      <point x="258.4" y="755.0"/>
      <point x="300.0" y="755.0" type="curve" smooth="yes"/>
      <point x="342.4" y="755.0"/>
      <point x="370.6" y="783.8"/>
      <point x="370.6" y="824.8" type="curve" smooth="yes"/>
      <point x="370.6" y="866.2"/>
      <point x="342.4" y="895.0"/>
      <point x="300.0" y="895.0" type="curve" smooth="yes"/>
      <point x="258.4" y="895.0"/>
      <point x="229.39999999999998" y="866.2"/>
    </contour>
    <contour>
      <point x="300.0" y="690.0" type="move" name="_top"/>
    </contour>
  </outline>
</glyph>
<glyph name="gem" format="1">
  <advance width="1080.0"/>
  <outline>
    <contour>
      <point x="40.0" y="320.0" type="curve" smooth="yes"/>
      <point x="40.0" y="256.0"/>
      <point x="76.0" y="198.0"/>
      <point x="127.0" y="167.0" type="curve"/>
      <point x="127.0" y="473.0" type="line"/>
      <point x="76.0" y="442.0"/>
      <point x="40.0" y="384.0"/>
    </contour>
    <contour>
      <point x="156.0" y="320.0" type="curve" smooth="yes"/>
      <point x="156.0" y="221.0"/>
      <point x="236.0" y="141.0"/>
      <point x="334.0" y="141.0" type="curve"/>
      <point x="334.0" y="499.0" type="line"/>
      <point x="236.0" y="499.0"/>
      <point x="156.0" y="419.0"/>
    </contour>
    <contour>
      <point x="164.0" y="114.0" type="line"/>
      <point x="164.0" y="20.0"/>
      <point x="240.0" y="-56.0"/>
      <point x="334.0" y="-56.0" type="curve"/>
      <point x="334.0" y="114.0" type="line"/>
    </contour>
    <contour>
      <point x="164.0" y="526.0" type="curve"/>
      <point x="334.0" y="526.0" type="line"/>
      <point x="334.0" y="696.0" type="line"/>
      <point x="240.0" y="696.0"/>
      <point x="164.0" y="620.0"/>
    </contour>
    <contour>
      <point x="361.0" y="114.0" type="line"/>
      <point x="361.0" y="16.0"/>
      <point x="441.0" y="-64.0"/>
      <point x="540.0" y="-64.0" type="curve" smooth="yes"/>
      <point x="639.0" y="-64.0"/>
      <point x="719.0" y="16.0"/>
      <point x="719.0" y="114.0" type="curve"/>
    </contour>
    <contour>
      <point x="361.0" y="320.0" type="curve" smooth="yes"/>
      <point x="361.0" y="221.0"/>
      <point x="441.0" y="141.0"/>
      <point x="540.0" y="141.0" type="curve" smooth="yes"/>
      <point x="639.0" y="141.0"/>
      <point x="719.0" y="221.0"/>
      <point x="719.0" y="320.0" type="curve" smooth="yes"/>
      <point x="719.0" y="419.0"/>
      <point x="639.0" y="499.0"/>
      <point x="540.0" y="499.0" type="curve" smooth="yes"/>
      <point x="441.0" y="499.0"/>
      <point x="361.0" y="419.0"/>
    </contour>
    <contour>
      <point x="361.0" y="526.0" type="curve"/>
      <point x="719.0" y="526.0" type="line"/>
      <point x="719.0" y="624.0"/>
      <point x="639.0" y="704.0"/>
      <point x="540.0" y="704.0" type="curve" smooth="yes"/>
      <point x="441.0" y="704.0"/>
      <point x="361.0" y="624.0"/>
    </contour>
    <contour>
      <point x="387.0" y="-93.0" type="line"/>
      <point x="418.0" y="-144.0"/>
      <point x="476.0" y="-180.0"/>
      <point x="540.0" y="-180.0" type="curve" smooth="yes"/>
      <point x="604.0" y="-180.0"/>
      <point x="662.0" y="-144.0"/>
      <point x="693.0" y="-93.0" type="curve"/>
    </contour>
    <contour>
      <point x="387.0" y="733.0" type="curve"/>
      <point x="693.0" y="733.0" type="line"/>
      <point x="662.0" y="784.0"/>
      <point x="604.0" y="820.0"/>
      <point x="540.0" y="820.0" type="curve" smooth="yes"/>
      <point x="476.0" y="820.0"/>
      <point x="418.0" y="784.0"/>
    </contour>
    <contour>
      <point x="746.0" y="-56.0" type="line"/>
      <point x="840.0" y="-56.0"/>
      <point x="916.0" y="20.0"/>
      <point x="916.0" y="114.0" type="curve"/>
      <point x="746.0" y="114.0" type="line"/>
    </contour>
    <contour>
      <point x="746.0" y="141.0" type="line"/>
      <point x="844.0" y="141.0"/>
      <point x="924.0" y="221.0"/>
      <point x="924.0" y="320.0" type="curve" smooth="yes"/>
      <point x="924.0" y="419.0"/>
      <point x="844.0" y="499.0"/>
      <point x="746.0" y="499.0" type="curve"/>
    </contour>
    <contour>
      <point x="746.0" y="526.0" type="line"/>
      <point x="916.0" y="526.0" type="line"/>
      <point x="916.0" y="620.0"/>
      <point x="840.0" y="696.0"/>
      <point x="746.0" y="696.0" type="curve"/>
    </contour>
    <contour>
      <point x="953.0" y="167.0" type="line"/>
      <point x="1004.0" y="198.0"/>
      <point x="1040.0" y="256.0"/>
      <point x="1040.0" y="320.0" type="curve" smooth="yes"/>
      <point x="1040.0" y="384.0"/>
      <point x="1004.0" y="442.0"/>
      <point x="953.0" y="473.0" type="curve"/>
    </contour>
  </outline>
</glyph>
<glyph name="grave.cap" format="1">
  <advance width="600.0"/>
  <outline>
    <contour>
      <point x="103.6" y="885.0" type="line"/>
      <point x="251.2" y="750.0" type="line"/>
      <point x="362.4" y="750.0" type="line"/>
      <point x="256.4" y="885.0" type="line"/>
    </contour>
    <contour>
      <point x="300.0" y="690.0" type="move" name="_top"/>
    </contour>
  </outline>
</glyph>
<glyph name="hungarumlaut.cap" format="1">
  <advance width="600.0"/>
  <outline>
    <contour>
      <point x="148.6" y="750.0" type="line"/>
      <point x="240.60000000000002" y="750.0" type="line"/>
      <point x="347.4" y="885.0" type="line"/>
      <point x="218.60000000000002" y="885.0" type="line"/>
    </contour>
    <contour>
      <point x="339.4" y="750.0" type="line"/>
      <point x="431.4" y="750.0" type="line"/>
      <point x="548.2" y="885.0" type="line"/>
      <point x="419.4" y="885.0" type="line"/>
    </contour>
    <contour>
      <point x="300.0" y="690.0" type="move" name="_top"/>
    </contour>
  </outline>
</glyph>
<glyph name="macron.cap" format="1">
  <advance width="600.0"/>
  <outline>
    <contour>
      <point x="138.8" y="772.4000000000001" type="line"/>
      <point x="461.20000000000005" y="772.4000000000001" type="line"/>
      <point x="461.20000000000005" y="867.5999999999999" type="line"/>
      <point x="138.8" y="867.5999999999999" type="line"/>
    </contour>
    <contour>
      <point x="300.0" y="690.0" type="move" name="_top"/>
    </contour>
  </outline>
</glyph>
<glyph name="ring_acute" format="1">
  <advance width="600.0"/>
  <outline>
    <component base="acute" yOffset="264.0"/>
    <component base="ring"/>
    <contour>
      <point x="300.0" y="521.0" type="move" name="_top"/>
    </contour>
  </outline>
</glyph>
<glyph name="seven.pl" format="1">
  <advance width="600.0"/>
  <outline>
    <contour>
      <point x="48.0" y="563.6" type="line"/>
      <point x="474.0" y="563.6" type="line"/>
      <point x="523.0" y="600.6" type="line"/>
      <point x="523.0" y="690.0" type="line"/>
      <point x="48.0" y="690.0" type="line"/>
    </contour>
    <contour>
      <point x="142.0" y="0.0" type="line"/>
      <point x="290.0" y="0.0" type="line"/>
      <point x="523.0" y="600.6" type="line"/>
      <point x="428.0" y="690.0" type="line"/>
    </contour>
  </outline>
</glyph>
<glyph name="tilde.cap" format="1">
  <advance width="600.0"/>
  <outline>
    <contour>
      <point x="133.0" y="761.0" type="curve"/>
      <point x="199.0" y="761.0" type="line"/>
      <point x="203.86666666666667" y="792.5999999999999"/>
      <point x="219.2" y="803.2"/>
      <point x="237.0" y="803.2" type="curve" smooth="yes"/>
      <point x="269.4" y="803.2"/>
      <point x="310.20000000000005" y="756.0"/>
      <point x="364.0" y="756.0" type="curve" smooth="yes"/>
      <point x="423.20000000000005" y="756.0"/>
      <point x="461.0" y="804.8"/>
      <point x="467.0" y="885.0" type="curve"/>
      <point x="401.0" y="885.0" type="line"/>
      <point x="396.1333333333333" y="853.4000000000001"/>
      <point x="380.8" y="842.8"/>
      <point x="363.0" y="842.8" type="curve" smooth="yes"/>
      <point x="331.0" y="842.8"/>
      <point x="290.2" y="890.0"/>
      <point x="236.0" y="890.0" type="curve" smooth="yes"/>
      <point x="176.8" y="890.0"/>
      <point x="139.0" y="841.2"/>
    </contour>
    <contour>
      <point x="300.0" y="690.0" type="move" name="_top"/>
    </contour>
  </outline>
</glyph>
<glyph name="uogonek.alt" format="1">
  <advance width="616.8"/>
  <outline>
    <contour>
      <point x="76.0" y="199.0" type="line" smooth="yes"/>
      <point x="76.0" y="58.0"/>
      <point x="158.8" y="-11.2"/>
      <point x="255.4" y="-11.2" type="curve"/>
      <point x="325.4" y="-11.2"/>
      <point x="381.8" y="27.8"/>
      <point x="424.0" y="83.8" type="curve"/>
      <point x="424.0" y="172.0" type="line"/>
      <point x="387.8" y="129.8"/>
      <point x="343.2" y="106.39999999999999"/>
      <point x="298.0" y="106.39999999999999" type="curve"/>
      <point x="241.20000000000002" y="106.39999999999999"/>
      <point x="202.8" y="140.8"/>
      <point x="202.8" y="217.6" type="curve" smooth="yes"/>
      <point x="202.8" y="521.0" type="line"/>
      <point x="76.0" y="521.0" type="line"/>
    </contour>
    <contour>
      <point x="409.0" y="132.0" type="line"/>
      <point x="418.0" y="88.0" type="line"/>
      <point x="423.8" y="17.2"/>
      <point x="467.4" y="-11.2"/>
      <point x="521.2" y="-11.2" type="curve"/>
      <point x="540.4" y="-11.2"/>
      <point x="562.4" y="-6.6000000000000005"/>
      <point x="578.8" y="0.0" type="curve"/>
      <point x="578.8" y="102.6" type="line"/>
      <point x="572.0" y="100.19999999999999"/>
      <point x="566.4" y="99.2"/>
      <point x="559.5999999999999" y="99.2" type="curve"/>
      <point x="544.5999999999999" y="99.2"/>
      <point x="535.8" y="107.19999999999999"/>
      <point x="535.8" y="128.2" type="curve" smooth="yes"/>
      <point x="535.8" y="521.0" type="line"/>
      <point x="409.0" y="521.0" type="line"/>
    </contour>
    <contour>
      <point x="407.6" y="-110.0" type="curve" smooth="yes"/>
      <point x="407.6" y="-163.8"/>
      <point x="448.4" y="-196.2"/>
      <point x="506.0" y="-196.2" type="curve" smooth="yes"/>
      <point x="540.6" y="-196.2"/>
      <point x="568.2" y="-185.0"/>
      <point x="592.8" y="-170.0" type="curve"/>
      <point x="566.8" y="-108.2" type="line"/>
      <point x="551.6" y="-117.39999999999999"/>
      <point x="536.8" y="-125.80000000000001"/>
      <point x="517.2" y="-125.80000000000001" type="curve" smooth="yes"/>
      <point x="497.6" y="-125.80000000000001"/>
      <point x="485.0" y="-112.6"/>
      <point x="485.0" y="-94.0" type="curve" smooth="yes"/>
      <point x="485.0" y="-61.6"/>
      <point x="515.2" y="-30.0"/>
      <point x="578.8" y="0.0" type="curve"/>
      <point x="474.79999999999995" y="0.0" type="line"/>
      <point x="434.79999999999995" y="-26.8"/>
      <point x="407.6" y="-64.6"/>
    </contour>
  </outline>
</glyph>
